<svg xmlns="http://www.w3.org/2000/svg" xmlns:xlink="http://www.w3.org/1999/xlink" width="291.664" height="38.776" viewBox="0 -950 16114.5 2142.2"><defs><path id="a" d="M133 736q5 14 20 14 11 0 17-11 2-4 2-489t-2-489q-6-11-18-11-8 0-14 6l-1 1q-4 2-4 64t-1 429q0 481 1 486zm196 3q5 11 17 11 7 0 15-6l1-1q4-2 4-64t1-429 0-428-5-65l-1-1q-6-6-14-6-12 0-18 11-2 4-2 489t2 489z"/><path id="b" d="M166 673q0 12 17 21h19q90-3 114-50 6-15 57-158t101-279 50-140q7-20 13-33t9-19 5-9 4-4 1-4-6-9h-68q-25 14-32 29t-51 134l-45 125-14-15q-13-16-47-55t-57-66q-25-29-62-72-51-60-63-70T83-12q-36 0-36 32 0 17 14 32t138 135q30 29 67 65t55 54l17 16q0 1-50 140t-54 150q-20 45-51 45-17 0-17 16z"/><path id="c" d="M51 0q-5 4-5 7 0 2 169 350t173 352q3 7 28 7 23 0 28-7 3-4 172-352T786 7q0-3-5-7H51zm456 344L384 596 137 92l246-1h247q0 2-123 253z"/><path id="d" d="M118-162q2 0 6-2t11-3 12-1q13 0 24 13t16 29q10 27 34 153t46 240 22 115v3h-47q-47 0-50 2-4 3-4 10l7 28q2 5 8 5t47 1q48 0 48 1 0 2 9 50t12 58q37 165 146 165 37-2 61-22t24-53q0-36-21-52t-42-17q-44 0-44 42 0 19 11 33t24 21l9 5q-16 6-30 6-12 0-23-10t-15-28q-7-29-16-78t-16-83-7-36q0-2 55-2 45 0 52-1t11-6q1-4-2-17t-5-16q-2-5-9-5t-54-1h-56l-23-122Q301 15 282-47q-27-85-70-126-37-32-73-32-32 0-58 19t-26 54q0 37 21 54t42 17q44 0 44-42 0-19-11-33t-24-21l-9-5z"/><path id="e" d="M109 429q-27 0-43 18t-16 44q0 71 53 123t132 52q91 0 152-56t62-145q0-43-20-82t-48-68-80-74q-36-31-100-92l-59-56 76-1q157 0 167 5 7 2 24 89v3h40v-3q-1-3-13-91T421 3V0H50v31q0 7 6 15t30 35q29 32 50 56 9 10 34 37t34 37 29 33 28 34 23 30 21 32 15 29 13 32 7 30 3 33q0 63-34 109t-97 46q-33 0-58-17t-35-33-10-19q0-1 5-1 18 0 37-14t19-46q0-25-16-42t-45-18z"/><path id="f" d="M228 637q-34 0-36 4-1 2-1 8 0 24 11 33 2 1 15 1 54-3 127-3 141 0 162 3h12q6-6 6-9t-2-18q-5-15-9-19h-38q-69-1-81-9-7-4-14-28t-67-264q-16-65-34-138T252 88l-9-36q0-4 9-4t59-2h17q32 0 51 1t49 7 50 18 44 34 42 55q16 30 30 67t17 42q5 3 17 3h13q6-9 6-11t-20-59-44-120-26-74q-2-5-4-6t-16-3-43-1h-76q-65 0-124 1H116Q32 0 32 10q0 7 2 14 5 19 10 21 4 1 15 1h6q27 0 60 3 14 3 19 12 3 4 72 278t69 289q0 7-57 9z"/><path id="g" d="M94 250q0 69 10 131t23 107 37 88 38 67 42 52 33 34 25 21h17q14 0 14-9 0-3-17-21t-41-53-49-86-42-138-17-193 17-192 41-139 49-86 42-53 17-21q0-9-15-9h-16l-28 24q-94 85-137 212T94 250z"/><path id="h" d="M55 454q0 49 20 92t52 71 70 48 75 30 65 9h15q44 0 52-1 123-16 192-88t70-161q0-62-31-124t-76-130-60-117v-3h44q46 1 57 3t17 10q5 9 12 42t7 37l1 5h40v-2l-17-86Q645 3 644 2V0H488q-27 0-32 3t-5 17q0 69 48 215t49 220q0 57-18 100t-47 67-59 34-63 12q-29 0-58-10t-60-32-50-66-19-104q0-76 48-223t48-213q0-13-7-20H77v2q-1 1-16 87l-17 86v2h40l1-5q0-1 3-17t8-36 8-26q5-7 16-9t58-4h44v3q-16 49-60 116T87 329 55 454z"/><path id="i" d="m60 749 4 1h22l28-24q94-85 137-212t43-264q0-68-10-131T261 12t-37-88-38-67-41-51-32-33-23-19l-4-4H63q-3 0-5 3t-3 9q1 1 11 13Q221-64 221 250T66 725q-10 12-11 13 0 8 5 11z"/><path id="j" d="M56 237v13l14 20h299v150l1 150q10 13 19 13 13 0 20-15V270h298q15-8 15-20t-15-20H409V-68q-8-14-18-14h-4q-12 0-18 14v298H70q-14 7-14 20z"/><path id="k" d="M60 948q3 2 605 2h602l58-135q59-138 63-146h-40l-7 14q-21 41-56 78-50 48-111 77t-141 43-151 17-183 4H251l8-11q463-633 465-639 1-2 0-6-3-3-264-302L196-356q0-1 211-1h141q89 0 128-1 136 0 220 5t167 21 141 49 103 87q21 26 41 72h40q0-1-7-21t-25-65-31-84l-58-155-601-1q-602 0-605 2-6 2-6 9 0 2 2 6l533 610q0 1-33 45T452 366 322 544L56 909l-1 15q0 21 5 24z"/><path id="l" d="M184 600q0 24 19 42t44 19q18 0 30-12t13-30q0-23-20-42t-44-20q-15 0-28 10t-14 33zM21 287q0 8 9 31t24 51 44 51 60 22q39 0 65-23t27-62q0-17-14-56t-40-105-42-113q-5-22-5-32 0-25 17-25 9 0 19 3t23 14 27 35 25 59q3 12 5 14t17 2q20 0 20-10 0-8-9-31t-25-51-45-50-62-22q-32 0-59 21T74 74q0 17 5 32t43 114q38 101 44 121t7 39q0 24-17 24h-2q-30 0-55-33t-38-84q-1-1-2-3t-1-3-2-2-3-1-4 0-8 0H27q-6 6-6 9z"/><path id="m" d="M52 289q7 42 54 97t116 56q35 0 64-18t43-45q42 63 101 63 37 0 64-22t28-59q0-29-14-47t-27-22-23-4q-19 0-31 11t-12 29q0 46 50 63-11 13-40 13-13 0-19-2-38-16-56-66-60-221-60-258 0-28 16-40t35-12q37 0 73 33t49 81q3 10 6 11t16 2h4q15 0 15-8 0-1-2-11-16-57-62-101T333-11q-70 0-106 63-41-62-94-62h-6q-49 0-70 26T35 71q0 32 19 52t45 20q43 0 43-42 0-20-12-35t-23-20-13-5l-3-1q0-1 6-4t16-7 19-3q36 0 62 45 9 16 23 68t28 108 16 66q5 27 5 39 0 28-15 40t-34 12q-40 0-75-32t-49-82q-2-9-5-10t-16-2H58q-6 6-6 11z"/><path id="n" d="M84 237v13l14 20h581q15-8 15-20t-15-20H98q-14 7-14 20z"/><path id="o" d="M21 287q0 14 15 48t48 71 74 36q41 0 66-23t26-64q-2-19-3-21 0-3-16-46t-33-97-16-86q0-43 14-60t42-18q23 0 43 11t31 23 27 33q0 1 5 20t14 59 19 74q38 150 42 157 13 27 43 27 13 0 21-7t11-12 2-9q0-13-49-210T391-23q-28-83-97-132t-138-50q-45 0-79 22t-34 66q0 22 7 37t19 22 20 10 17 3q44 0 44-42 0-20-12-35t-23-20-13-5l-3-1q2-5 19-12t34-7h8q17 0 26 2 33 9 61 38t43 62 23 56 8 30l-6-4q-6-4-19-11T270-6q-20-5-39-5-46 0-81 22t-46 71q-1 7-1 31 0 57 35 149t35 117v14q0 3-4 7t-11 4h-4q-23 0-42-19t-30-41-17-42-8-22q-2-2-16-2H27q-6 6-6 9z"/><path id="p" d="M56 237v13l14 20h765q-116 87-143 223v3q0 2-1 3 0 12 17 12h3q9 0 12-1t6-4 3-9 3-16 8-25q22-67 73-120t119-75q9-3 9-11 0-6-5-9t-24-10-38-19q-41-26-71-60t-45-67-21-50-8-31q-2-10-5-12t-16-3q-20 0-20 11 0 7 5 25 32 126 139 205H70q-14 7-14 20z"/><path id="q" d="M41 46h14q39 0 47 14v62q0 17 1 39t0 42v66q0 35-1 59v23q-3 19-14 25t-45 9H25v23q0 23 2 23l10 1q10 1 28 2t37 2q17 1 36 2t29 3 11 1h3v-40q0-38 1-38t5 5 12 15 19 18 29 19 38 16q20 5 51 5 15 0 28-2t23-6 19-8 15-9 11-11 9-11 7-11 4-10 3-8l2-5 3 4 6 8q3 4 9 11t13 13 15 13 20 12 23 10 26 7 31 3q126 0 137-113 1-7 1-139v-86q0-38 2-45t11-10q21-3 49-3h16V0h-8l-23 1q-24 1-51 1t-38 1Q596 3 587 0h-8v46h16q61 0 61 16 1 2 1 138-1 135-2 143-6 28-20 42t-24 17-26 2q-45 0-79-34-27-27-34-55t-8-83V108q0-30 1-40t3-13 9-6q21-3 49-3h16V0h-8l-24 1q-23 1-50 1t-38 1Q319 3 310 0h-8v46h16q61 0 61 16 1 2 1 138-1 135-2 143-6 28-20 42t-24 17-26 2q-45 0-79-34-27-27-34-55t-8-83V108q0-30 1-40t3-13 9-6q21-3 49-3h16V0h-8l-23 1q-24 1-51 1t-38 1Q42 3 33 0h-8v46h16z"/><path id="r" d="M69 609q0 28 18 44t44 16q23-2 40-17t17-43q0-30-17-45t-42-15q-25 0-42 15t-18 45zM247 0q-15 3-104 3h-37Q80 3 56 1L34 0h-8v46h16q28 0 49 3 9 4 11 11t2 42v191q0 52-2 66t-14 19q-14 7-47 7H30v23q0 23 2 23l10 1q10 1 28 2t36 2 36 2 29 3 11 1h3V62q5-10 12-12t35-4h23V0h-8z"/><path id="s" d="M41 46h14q39 0 47 14v62q0 17 1 39t0 42v66q0 35-1 59v23q-3 19-14 25t-45 9H25v23q0 23 2 23l10 1q10 1 28 2t37 2q17 1 36 2t29 3 11 1h3v-40q0-38 1-38t5 5 12 15 19 18 29 19 38 16q20 5 51 5 114-4 127-113 1-7 1-139v-86q0-38 2-45t11-10q21-3 49-3h16V0h-8l-24 1q-23 1-50 1t-38 1Q319 3 310 0h-8v46h16q61 0 61 16 1 2 1 138-1 135-2 143-6 28-20 42t-24 17-26 2q-45 0-79-34-27-27-34-55t-8-83V108q0-30 1-40t3-13 9-6q21-3 49-3h16V0h-8l-23 1q-24 1-51 1t-38 1Q42 3 33 0h-8v46h16z"/></defs><g data-mml-node="math" stroke="currentColor" fill="currentColor" stroke-width="0"><use xlink:href="#a" data-mml-node="mo" transform="scale(1 -1)"/><use xlink:href="#b" data-mml-node="mi" transform="matrix(1 0 0 -1 500 0)"/><use xlink:href="#c" data-mml-node="mi" transform="matrix(1 0 0 -1 1083 0)"/><use xlink:href="#d" data-mml-node="mi" transform="matrix(1 0 0 -1 1916 0)"/><g data-mml-node="msubsup"><use xlink:href="#a" data-mml-node="mo" transform="matrix(1 0 0 -1 2466 0)"/><use xlink:href="#e" data-mml-node="mn" transform="matrix(.707 0 0 -.707 2966 -413)"/><g data-mml-node="TeXAtom"><g data-mml-node="msup"><use xlink:href="#f" data-mml-node="mi" transform="matrix(.707 0 0 -.707 2966 356.7)"/><use xlink:href="#e" data-mml-node="mn" transform="matrix(.49985 0 0 -.49985 3447.467 100.059)"/></g><use xlink:href="#g" data-mml-node="mo" transform="matrix(.707 0 0 -.707 3732.812 356.7)"/><use xlink:href="#h" data-mml-node="mi" transform="matrix(.707 0 0 -.707 4007.835 356.7)"/><use xlink:href="#i" data-mml-node="mo" transform="matrix(.707 0 0 -.707 4518.29 356.7)"/></g></g><use xlink:href="#j" data-mml-node="mo" transform="matrix(1 0 0 -1 5065.8 0)"/><g data-mml-node="munder"><use xlink:href="#k" data-mml-node="mo" transform="matrix(1 0 0 -1 6066 0)"/><use xlink:href="#l" data-mml-node="mi" transform="matrix(.707 0 0 -.707 6666 1084.4)"/></g><use xlink:href="#g" data-mml-node="mo" transform="matrix(1 0 0 -1 7510 0)"/><use xlink:href="#d" data-mml-node="mi" transform="matrix(1 0 0 -1 7899 0)"/><use xlink:href="#g" data-mml-node="mo" transform="matrix(1 0 0 -1 8449 0)"/><g data-mml-node="msub"><use xlink:href="#m" data-mml-node="mi" transform="matrix(1 0 0 -1 8838 0)"/><use xlink:href="#l" data-mml-node="mi" transform="matrix(.707 0 0 -.707 9410 150)"/></g><use xlink:href="#i" data-mml-node="mo" transform="matrix(1 0 0 -1 9704 0)"/><use xlink:href="#n" data-mml-node="mo" transform="matrix(1 0 0 -1 10315.2 0)"/><g data-mml-node="msub"><use xlink:href="#o" data-mml-node="mi" transform="matrix(1 0 0 -1 11315.4 0)"/><use xlink:href="#l" data-mml-node="mi" transform="matrix(.707 0 0 -.707 11805.4 150)"/></g><g data-mml-node="msup"><use xlink:href="#i" data-mml-node="mo" transform="matrix(1 0 0 -1 12099.3 0)"/><use xlink:href="#e" data-mml-node="mn" transform="matrix(.707 0 0 -.707 12488.3 -413)"/></g><use xlink:href="#p" data-mml-node="mo" transform="matrix(1 0 0 -1 13169.7 0)"/><g data-mml-node="mo" transform="matrix(1 0 0 -1 14447.5 0)"><use xlink:href="#q"/><use xlink:href="#r" transform="translate(833)"/><use xlink:href="#s" transform="translate(1111)"/></g></g></svg>
