<svg height="396.254" viewBox="0 0 394.423 297.19" width="525.898" xmlns="http://www.w3.org/2000/svg" xmlns:xlink="http://www.w3.org/1999/xlink"><defs><style>*{stroke-linecap:butt;stroke-linejoin:round}</style></defs><g id="figure_1"><path d="M0 297.19h394.423V0H0z" fill="none" id="patch_1"/><g id="axes_1"><path d="M30.103 273.312h357.12V7.2H30.103z" fill="none" id="patch_2"/><g id="matplotlib.axis_1"><g id="xtick_1"><path clip-path="url(#pac2d624ae8)" d="M46.336 273.312V7.2" fill="none" stroke="#b0b0b0" stroke-linecap="square" stroke-width=".8" id="line2d_1"/><g id="line2d_2"><defs><path d="M0 0v3.5" id="mc23f6d88d9" stroke="#000" stroke-width=".8"/></defs><use x="46.336" xlink:href="#mc23f6d88d9" y="273.312" stroke="#000" stroke-width=".8"/></g><g id="text_1"><defs><path d="M10.594 35.5h62.593v-8.297H10.594z" id="DejaVuSans-8722"/><path d="M12.406 8.297h16.11v55.625l-17.532-3.516v8.985l17.438 3.515h9.86V8.296H54.39V0H12.406z" id="DejaVuSans-49"/><path d="M10.688 12.406H21V0H10.687z" id="DejaVuSans-46"/><path d="M31.781 66.406q-7.61 0-11.453-7.5Q16.5 51.422 16.5 36.375q0-14.984 3.828-22.484 3.844-7.5 11.453-7.5 7.672 0 11.5 7.5 3.844 7.5 3.844 22.484 0 15.047-3.844 22.531-3.828 7.5-11.5 7.5zm0 7.813q12.266 0 18.735-9.703 6.468-9.688 6.468-28.141 0-18.406-6.468-28.11-6.47-9.687-18.735-9.687-12.25 0-18.718 9.688-6.47 9.703-6.47 28.109 0 18.453 6.47 28.14Q19.53 74.22 31.78 74.22z" id="DejaVuSans-48"/></defs><g transform="matrix(.1 0 0 -.1 31.013 287.91)"><use xlink:href="#DejaVuSans-8722"/><use x="83.789" xlink:href="#DejaVuSans-49"/><use x="147.412" xlink:href="#DejaVuSans-46"/><use x="179.199" xlink:href="#DejaVuSans-48"/><use x="242.822" xlink:href="#DejaVuSans-48"/></g></g></g><g id="xtick_2"><path clip-path="url(#pac2d624ae8)" d="M86.918 273.312V7.2" fill="none" stroke="#b0b0b0" stroke-linecap="square" stroke-width=".8" id="line2d_3"/><use x="86.918" xlink:href="#mc23f6d88d9" y="273.312" stroke="#000" stroke-width=".8" id="line2d_4"/><g id="text_2"><defs><path d="M8.203 72.906h46.875v-4.203L28.61 0H18.312L43.22 64.594H8.203z" id="DejaVuSans-55"/><path d="M10.797 72.906h38.719v-8.312H19.828v-17.86q2.14.735 4.281 1.094 2.157.36 4.313.36 12.203 0 19.328-6.688 7.14-6.688 7.14-18.11 0-11.765-7.328-18.296-7.328-6.516-20.656-6.516-4.593 0-9.36.781-4.75.782-9.827 2.344v9.922q4.39-2.39 9.078-3.563 4.687-1.171 9.906-1.171 8.453 0 13.375 4.437 4.938 4.438 4.938 12.063 0 7.609-4.938 12.047-4.922 4.453-13.375 4.453-3.953 0-7.89-.875-3.922-.875-8.016-2.735z" id="DejaVuSans-53"/></defs><g transform="matrix(.1 0 0 -.1 71.595 287.91)"><use xlink:href="#DejaVuSans-8722"/><use x="83.789" xlink:href="#DejaVuSans-48"/><use x="147.412" xlink:href="#DejaVuSans-46"/><use x="179.199" xlink:href="#DejaVuSans-55"/><use x="242.822" xlink:href="#DejaVuSans-53"/></g></g></g><g id="xtick_3"><path clip-path="url(#pac2d624ae8)" d="M127.5 273.312V7.2" fill="none" stroke="#b0b0b0" stroke-linecap="square" stroke-width=".8" id="line2d_5"/><use x="127.499" xlink:href="#mc23f6d88d9" y="273.312" stroke="#000" stroke-width=".8" id="line2d_6"/><g transform="matrix(.1 0 0 -.1 112.177 287.91)" id="text_3"><use xlink:href="#DejaVuSans-8722"/><use x="83.789" xlink:href="#DejaVuSans-48"/><use x="147.412" xlink:href="#DejaVuSans-46"/><use x="179.199" xlink:href="#DejaVuSans-53"/><use x="242.822" xlink:href="#DejaVuSans-48"/></g></g><g id="xtick_4"><path clip-path="url(#pac2d624ae8)" d="M168.081 273.312V7.2" fill="none" stroke="#b0b0b0" stroke-linecap="square" stroke-width=".8" id="line2d_7"/><use x="168.081" xlink:href="#mc23f6d88d9" y="273.312" stroke="#000" stroke-width=".8" id="line2d_8"/><g id="text_4"><defs><path d="M19.188 8.297h34.421V0H7.33v8.297q5.609 5.812 15.296 15.594 9.703 9.797 12.188 12.64 4.734 5.313 6.609 9 1.89 3.688 1.89 7.25 0 5.813-4.078 9.469-4.078 3.672-10.625 3.672-4.64 0-9.797-1.61-5.14-1.609-11-4.89v9.969Q13.767 71.78 18.938 73q5.188 1.219 9.485 1.219 11.328 0 18.062-5.672 6.735-5.656 6.735-15.125 0-4.5-1.688-8.531-1.672-4.016-6.125-9.485-1.218-1.422-7.765-8.187-6.532-6.766-18.453-18.922z" id="DejaVuSans-50"/></defs><g transform="matrix(.1 0 0 -.1 152.759 287.91)"><use xlink:href="#DejaVuSans-8722"/><use x="83.789" xlink:href="#DejaVuSans-48"/><use x="147.412" xlink:href="#DejaVuSans-46"/><use x="179.199" xlink:href="#DejaVuSans-50"/><use x="242.822" xlink:href="#DejaVuSans-53"/></g></g></g><g id="xtick_5"><path clip-path="url(#pac2d624ae8)" d="M208.663 273.312V7.2" fill="none" stroke="#b0b0b0" stroke-linecap="square" stroke-width=".8" id="line2d_9"/><use x="208.663" xlink:href="#mc23f6d88d9" y="273.312" stroke="#000" stroke-width=".8" id="line2d_10"/><g transform="matrix(.1 0 0 -.1 197.53 287.91)" id="text_5"><use xlink:href="#DejaVuSans-48"/><use x="63.623" xlink:href="#DejaVuSans-46"/><use x="95.41" xlink:href="#DejaVuSans-48"/><use x="159.033" xlink:href="#DejaVuSans-48"/></g></g><g id="xtick_6"><path clip-path="url(#pac2d624ae8)" d="M249.245 273.312V7.2" fill="none" stroke="#b0b0b0" stroke-linecap="square" stroke-width=".8" id="line2d_11"/><use x="249.245" xlink:href="#mc23f6d88d9" y="273.312" stroke="#000" stroke-width=".8" id="line2d_12"/><g transform="matrix(.1 0 0 -.1 238.112 287.91)" id="text_6"><use xlink:href="#DejaVuSans-48"/><use x="63.623" xlink:href="#DejaVuSans-46"/><use x="95.41" xlink:href="#DejaVuSans-50"/><use x="159.033" xlink:href="#DejaVuSans-53"/></g></g><g id="xtick_7"><path clip-path="url(#pac2d624ae8)" d="M289.827 273.312V7.2" fill="none" stroke="#b0b0b0" stroke-linecap="square" stroke-width=".8" id="line2d_13"/><use x="289.827" xlink:href="#mc23f6d88d9" y="273.312" stroke="#000" stroke-width=".8" id="line2d_14"/><g transform="matrix(.1 0 0 -.1 278.694 287.91)" id="text_7"><use xlink:href="#DejaVuSans-48"/><use x="63.623" xlink:href="#DejaVuSans-46"/><use x="95.41" xlink:href="#DejaVuSans-53"/><use x="159.033" xlink:href="#DejaVuSans-48"/></g></g><g id="xtick_8"><path clip-path="url(#pac2d624ae8)" d="M330.409 273.312V7.2" fill="none" stroke="#b0b0b0" stroke-linecap="square" stroke-width=".8" id="line2d_15"/><use x="330.409" xlink:href="#mc23f6d88d9" y="273.312" stroke="#000" stroke-width=".8" id="line2d_16"/><g transform="matrix(.1 0 0 -.1 319.276 287.91)" id="text_8"><use xlink:href="#DejaVuSans-48"/><use x="63.623" xlink:href="#DejaVuSans-46"/><use x="95.41" xlink:href="#DejaVuSans-55"/><use x="159.033" xlink:href="#DejaVuSans-53"/></g></g><g id="xtick_9"><path clip-path="url(#pac2d624ae8)" d="M370.99 273.312V7.2" fill="none" stroke="#b0b0b0" stroke-linecap="square" stroke-width=".8" id="line2d_17"/><use x="370.99" xlink:href="#mc23f6d88d9" y="273.312" stroke="#000" stroke-width=".8" id="line2d_18"/><g transform="matrix(.1 0 0 -.1 359.858 287.91)" id="text_9"><use xlink:href="#DejaVuSans-49"/><use x="63.623" xlink:href="#DejaVuSans-46"/><use x="95.41" xlink:href="#DejaVuSans-48"/><use x="159.033" xlink:href="#DejaVuSans-48"/></g></g></g><g id="matplotlib.axis_2"><g id="ytick_1"><path clip-path="url(#pac2d624ae8)" d="M30.103 255.45h357.12" fill="none" stroke="#b0b0b0" stroke-linecap="square" stroke-width=".8" id="line2d_19"/><g id="line2d_20"><defs><path d="M0 0h-3.5" id="mc2b9a4293f" stroke="#000" stroke-width=".8"/></defs><use x="30.103" xlink:href="#mc2b9a4293f" y="255.45" stroke="#000" stroke-width=".8"/></g><g transform="matrix(.1 0 0 -.1 7.2 259.25)" id="text_10"><use xlink:href="#DejaVuSans-48"/><use x="63.623" xlink:href="#DejaVuSans-46"/><use x="95.41" xlink:href="#DejaVuSans-48"/></g></g><g id="ytick_2"><path clip-path="url(#pac2d624ae8)" d="M30.103 209.505h357.12" fill="none" stroke="#b0b0b0" stroke-linecap="square" stroke-width=".8" id="line2d_21"/><use x="30.103" xlink:href="#mc2b9a4293f" y="209.505" stroke="#000" stroke-width=".8" id="line2d_22"/><g transform="matrix(.1 0 0 -.1 7.2 213.304)" id="text_11"><use xlink:href="#DejaVuSans-48"/><use x="63.623" xlink:href="#DejaVuSans-46"/><use x="95.41" xlink:href="#DejaVuSans-50"/></g></g><g id="ytick_3"><path clip-path="url(#pac2d624ae8)" d="M30.103 163.56h357.12" fill="none" stroke="#b0b0b0" stroke-linecap="square" stroke-width=".8" id="line2d_23"/><use x="30.103" xlink:href="#mc2b9a4293f" y="163.56" stroke="#000" stroke-width=".8" id="line2d_24"/><g id="text_12"><defs><path d="M37.797 64.313L12.89 25.39h24.906zm-2.594 8.593H47.61V25.391h10.407v-8.203H47.609V0h-9.812v17.188H4.89v9.515z" id="DejaVuSans-52"/></defs><g transform="matrix(.1 0 0 -.1 7.2 167.36)"><use xlink:href="#DejaVuSans-48"/><use x="63.623" xlink:href="#DejaVuSans-46"/><use x="95.41" xlink:href="#DejaVuSans-52"/></g></g></g><g id="ytick_4"><path clip-path="url(#pac2d624ae8)" d="M30.103 117.615h357.12" fill="none" stroke="#b0b0b0" stroke-linecap="square" stroke-width=".8" id="line2d_25"/><use x="30.103" xlink:href="#mc2b9a4293f" y="117.615" stroke="#000" stroke-width=".8" id="line2d_26"/><g id="text_13"><defs><path d="M33.016 40.375q-6.641 0-10.532-4.547-3.875-4.531-3.875-12.437 0-7.86 3.875-12.438 3.891-4.562 10.532-4.562 6.64 0 10.515 4.562 3.875 4.578 3.875 12.438 0 7.906-3.875 12.437-3.875 4.547-10.515 4.547zm19.578 30.922v-8.984q-3.719 1.75-7.5 2.671-3.782.938-7.5.938-9.766 0-14.922-6.594-5.14-6.594-5.875-19.922 2.875 4.25 7.219 6.516 4.359 2.266 9.578 2.266 10.984 0 17.36-6.672 6.374-6.657 6.374-18.125 0-11.235-6.64-18.032-6.641-6.78-17.672-6.78-12.657 0-19.344 9.687-6.688 9.703-6.688 28.109 0 17.281 8.204 27.563 8.203 10.28 22.015 10.28 3.719 0 7.5-.734t7.89-2.187z" id="DejaVuSans-54"/></defs><g transform="matrix(.1 0 0 -.1 7.2 121.414)"><use xlink:href="#DejaVuSans-48"/><use x="63.623" xlink:href="#DejaVuSans-46"/><use x="95.41" xlink:href="#DejaVuSans-54"/></g></g></g><g id="ytick_5"><path clip-path="url(#pac2d624ae8)" d="M30.103 71.67h357.12" fill="none" stroke="#b0b0b0" stroke-linecap="square" stroke-width=".8" id="line2d_27"/><use x="30.103" xlink:href="#mc2b9a4293f" y="71.67" stroke="#000" stroke-width=".8" id="line2d_28"/><g id="text_14"><defs><path d="M31.781 34.625q-7.031 0-11.062-3.766-4.016-3.765-4.016-10.343 0-6.594 4.016-10.36Q24.75 6.391 31.78 6.391q7.032 0 11.078 3.78 4.063 3.798 4.063 10.345 0 6.578-4.031 10.343-4.016 3.766-11.11 3.766zm-9.86 4.188q-6.343 1.562-9.89 5.906Q8.5 49.079 8.5 55.329q0 8.733 6.219 13.812 6.234 5.078 17.062 5.078 10.89 0 17.094-5.078 6.203-5.079 6.203-13.813 0-6.25-3.547-10.61-3.531-4.343-9.828-5.906 7.125-1.656 11.094-6.5 3.984-4.828 3.984-11.796 0-10.61-6.468-16.282-6.47-5.656-18.532-5.656-12.047 0-18.531 5.656-6.469 5.672-6.469 16.282 0 6.968 4 11.797 4.016 4.843 11.14 6.5zM18.314 54.39q0-5.657 3.53-8.828 3.548-3.172 9.938-3.172 6.36 0 9.938 3.172 3.593 3.171 3.593 8.828 0 5.672-3.593 8.843-3.578 3.172-9.938 3.172-6.39 0-9.937-3.172-3.532-3.172-3.532-8.843z" id="DejaVuSans-56"/></defs><g transform="matrix(.1 0 0 -.1 7.2 75.469)"><use xlink:href="#DejaVuSans-48"/><use x="63.623" xlink:href="#DejaVuSans-46"/><use x="95.41" xlink:href="#DejaVuSans-56"/></g></g></g><g id="ytick_6"><path clip-path="url(#pac2d624ae8)" d="M30.103 25.725h357.12" fill="none" stroke="#b0b0b0" stroke-linecap="square" stroke-width=".8" id="line2d_29"/><use x="30.103" xlink:href="#mc2b9a4293f" y="25.725" stroke="#000" stroke-width=".8" id="line2d_30"/><g transform="matrix(.1 0 0 -.1 7.2 29.524)" id="text_15"><use xlink:href="#DejaVuSans-49"/><use x="63.623" xlink:href="#DejaVuSans-46"/><use x="95.41" xlink:href="#DejaVuSans-48"/></g></g></g><path clip-path="url(#pac2d624ae8)" d="M46.336 246.615l10.4-1.197 9.424-1.303 8.45-1.392 7.474-1.452 6.824-1.549 6.175-1.623 5.524-1.67 5.2-1.792 4.875-1.913 4.55-2.023 4.224-2.119 3.9-2.195 3.9-2.46 3.575-2.523 3.25-2.548 3.25-2.826 3.249-3.139 2.925-3.13 2.925-3.454 2.924-3.822 2.6-3.741 2.6-4.104 2.6-4.504 2.6-4.948 2.6-5.438 2.6-5.976 2.6-6.563 2.6-7.2 2.599-7.88 2.6-8.593 2.6-9.327 2.924-11.36 3.25-13.614 3.9-17.405 7.474-33.68 2.275-9.206 1.95-7.04 1.625-5.09 1.3-3.474 1.3-2.878.975-1.735.975-1.353.975-.957.65-.413.65-.23.65-.046.65.138.65.322.974.822.975 1.223.975 1.61.975 1.98 1.3 3.182 1.3 3.75 1.625 5.393 1.95 7.331 2.275 9.45 3.25 14.509 7.8 35.2 3.249 13.518 2.925 11.26 2.924 10.337 2.6 8.412 2.6 7.706 2.6 7.036 2.6 6.412 2.6 5.837 2.6 5.311 2.6 4.833 2.6 4.4 2.599 4.01 2.925 4.09 2.925 3.695 2.924 3.342 2.925 3.03 3.25 3.04 3.25 2.739 3.575 2.706 3.574 2.425 3.9 2.367 3.9 2.115 4.225 2.044 4.55 1.953 4.874 1.85 5.2 1.735 5.85 1.706 6.174 1.564 6.825 1.493 7.474 1.403 8.125 1.3 9.099 1.231 9.424 1.075" fill="none" stroke="#000" stroke-linecap="square" stroke-opacity=".2" stroke-width="1.5" id="line2d_31"/><g id="line2d_32"><defs><path d="M-3 3l6-6m-6 0l6 6" id="m4be47c69f9" stroke="#000"/></defs><g clip-path="url(#pac2d624ae8)" stroke="#000"><use x="46.336" xlink:href="#m4be47c69f9" y="244.372"/><use x="52.829" xlink:href="#m4be47c69f9" y="236.007"/><use x="59.322" xlink:href="#m4be47c69f9" y="240.362"/><use x="65.815" xlink:href="#m4be47c69f9" y="242.105"/><use x="72.308" xlink:href="#m4be47c69f9" y="246.634"/><use x="78.801" xlink:href="#m4be47c69f9" y="235.234"/><use x="85.294" xlink:href="#m4be47c69f9" y="243.439"/><use x="91.787" xlink:href="#m4be47c69f9" y="220.994"/><use x="98.281" xlink:href="#m4be47c69f9" y="215.857"/><use x="104.774" xlink:href="#m4be47c69f9" y="240.367"/><use x="111.267" xlink:href="#m4be47c69f9" y="219.074"/><use x="117.76" xlink:href="#m4be47c69f9" y="228.136"/><use x="124.253" xlink:href="#m4be47c69f9" y="222.72"/><use x="130.746" xlink:href="#m4be47c69f9" y="201.913"/><use x="137.239" xlink:href="#m4be47c69f9" y="235.822"/><use x="143.732" xlink:href="#m4be47c69f9" y="228.474"/><use x="150.225" xlink:href="#m4be47c69f9" y="223.313"/><use x="156.718" xlink:href="#m4be47c69f9" y="175.638"/><use x="163.211" xlink:href="#m4be47c69f9" y="165.06"/><use x="169.705" xlink:href="#m4be47c69f9" y="144.3"/><use x="176.198" xlink:href="#m4be47c69f9" y="118.597"/><use x="182.691" xlink:href="#m4be47c69f9" y="101.629"/><use x="189.184" xlink:href="#m4be47c69f9" y="88.304"/><use x="195.677" xlink:href="#m4be47c69f9" y="44.522"/><use x="202.17" xlink:href="#m4be47c69f9" y="52.099"/><use x="208.663" xlink:href="#m4be47c69f9" y="19.296"/><use x="215.156" xlink:href="#m4be47c69f9" y="50.946"/><use x="221.649" xlink:href="#m4be47c69f9" y="36.981"/><use x="228.142" xlink:href="#m4be47c69f9" y="85.531"/><use x="234.635" xlink:href="#m4be47c69f9" y="119.295"/><use x="241.129" xlink:href="#m4be47c69f9" y="151.405"/><use x="247.622" xlink:href="#m4be47c69f9" y="148.701"/><use x="254.115" xlink:href="#m4be47c69f9" y="179.855"/><use x="260.608" xlink:href="#m4be47c69f9" y="187.776"/><use x="267.101" xlink:href="#m4be47c69f9" y="223.379"/><use x="273.594" xlink:href="#m4be47c69f9" y="204.1"/><use x="280.087" xlink:href="#m4be47c69f9" y="210.963"/><use x="286.58" xlink:href="#m4be47c69f9" y="216.095"/><use x="293.073" xlink:href="#m4be47c69f9" y="205.458"/><use x="299.566" xlink:href="#m4be47c69f9" y="221.109"/><use x="306.059" xlink:href="#m4be47c69f9" y="238.933"/><use x="312.553" xlink:href="#m4be47c69f9" y="237.905"/><use x="319.046" xlink:href="#m4be47c69f9" y="228.08"/><use x="325.539" xlink:href="#m4be47c69f9" y="259.2"/><use x="332.032" xlink:href="#m4be47c69f9" y="232.909"/><use x="338.525" xlink:href="#m4be47c69f9" y="234.097"/><use x="345.018" xlink:href="#m4be47c69f9" y="256.432"/><use x="351.511" xlink:href="#m4be47c69f9" y="261.216"/><use x="358.004" xlink:href="#m4be47c69f9" y="253.564"/><use x="364.497" xlink:href="#m4be47c69f9" y="252.156"/><use x="370.99" xlink:href="#m4be47c69f9" y="243.389"/></g></g><path clip-path="url(#pac2d624ae8)" d="M46.336 244.329l6.493-1.28 6.493-.977 6.493-1.042 6.493-1.501 6.493-2.222 6.493-2.949 6.493-3.392 6.494-3.324 6.493-2.678 6.493-1.595 6.493-.425 6.493.331 6.493.147 6.493-1.403 6.493-4.501 6.493-9.002 6.493-14.405 6.493-19.912 6.494-24.557 6.493-27.379 6.493-27.624 6.493-24.9 6.493-19.287 6.493-11.34 6.493-2.019 6.493 7.48L221.65 60.5l6.493 22.289 6.493 25.887 6.494 26.523 6.493 24.48 6.493 20.445 6.493 15.364 6.493 10.228 6.493 5.901 6.493 2.96 6.493 1.61 6.493 1.7 6.493 2.786 6.493 4.274 6.494 5.572 6.493 6.222 6.493 5.998 6.493 4.927 6.493 3.257 6.493 1.369 6.493-.34 6.493-1.561 6.493-2.15 6.493-2.15" fill="none" stroke="#1f77b4" stroke-linecap="square" stroke-width="1.5" id="line2d_33"/><path d="M30.103 273.312V7.2" fill="none" stroke="#000" stroke-linecap="square" stroke-width=".8" id="patch_3"/><path d="M387.223 273.312V7.2" fill="none" stroke="#000" stroke-linecap="square" stroke-width=".8" id="patch_4"/><path d="M30.103 273.312h357.12" fill="none" stroke="#000" stroke-linecap="square" stroke-width=".8" id="patch_5"/><path d="M30.103 7.2h357.12" fill="none" stroke="#000" stroke-linecap="square" stroke-width=".8" id="patch_6"/></g></g><defs><clipPath id="pac2d624ae8"><path d="M30.103 7.2h357.12v266.112H30.103z"/></clipPath></defs></svg>