<svg xmlns="http://www.w3.org/2000/svg" xmlns:xlink="http://www.w3.org/1999/xlink" height="254.07" viewBox="0 0 827.51 190.552" width="1103.347" id="svg45"><defs id="defs4" stroke-linejoin="round"><style id="style2">*{stroke-linecap:butt;stroke-linejoin:round}</style></defs><g id="figure_1" transform="translate(-7.2 -39.158)" stroke-linejoin="round"><g id="patch_1"><path d="M0 280.512h371.52V0H0z" id="path6" fill="none"/></g><g id="axes_1"><g id="line2d_1"><path clip-path="url(#p22f64d38d4)" d="M7.2 224.115l10.714-1.376 8.928-1.344 8.928-1.566 7.142-1.444 7.142-1.649 7.143-1.891 5.357-1.606 5.356-1.794 5.357-2.009 5.357-2.258 5.357-2.548 5.357-2.884 3.57-2.136 3.572-2.33 3.571-2.544 3.571-2.782 3.572-3.046 3.57-3.34 3.572-3.665 3.571-4.026 3.571-4.424 3.572-4.861 3.57-5.34 3.572-5.858 3.571-6.413 3.571-7 3.572-7.603 3.57-8.206 3.572-8.778 3.571-9.282 5.357-14.58 7.142-19.485 3.572-9.023 1.785-4.152 1.786-3.837 1.785-3.467 1.786-3.041 1.786-2.566 1.785-2.047 1.786-1.49 1.785-.904 1.786-.304 1.786.304 1.785.905 1.786 1.49 1.785 2.046 1.786 2.566 1.786 3.041 1.785 3.467 1.786 3.837 3.571 8.562 3.571 9.376 12.5 34 3.57 9.041 3.572 8.499 3.571 7.906 3.571 7.3 3.571 6.703 3.572 6.132 3.57 5.593 3.572 5.096 3.571 4.637 3.571 4.22 3.572 3.841 3.57 3.499 3.572 3.189 3.571 2.91 3.571 2.66 3.572 2.434 3.57 2.23 5.358 3.009 5.356 2.654 5.357 2.35 5.357 2.088 5.357 1.862 5.357 1.666 7.142 1.959 7.142 1.705 7.143 1.493 8.928 1.615 8.928 1.385 10.713 1.415 1.786.214" id="path9" fill="none" stroke="#61ded4" stroke-width="10" stroke-linecap="square"/></g><g id="line2d_2"><defs id="defs13"><path d="M-5 10l5-5 5 5 5-5-5-5 5-5-5-5-5 5-5-5-5 5 5 5-5 5z" id="mc8e9ab356d" stroke="#000" stroke-linejoin="miter"/></defs><g clip-path="url(#p22f64d38d4)" id="g35" stroke="#000" stroke-linejoin="miter"><use x="29.52" xlink:href="#mc8e9ab356d" y="219.095" id="use15" width="100%" height="100%"/><use x="74.16" xlink:href="#mc8e9ab356d" y="200.897" id="use17" width="100%" height="100%"/><use x="96.48" xlink:href="#mc8e9ab356d" y="193.373" id="use19" width="100%" height="100%"/><use x="141.12" xlink:href="#mc8e9ab356d" y="138.55" id="use21" width="100%" height="100%"/><use x="185.76" xlink:href="#mc8e9ab356d" y="48.118" id="use23" width="100%" height="100%"/><use x="208.08" xlink:href="#mc8e9ab356d" y="77.686" id="use25" width="100%" height="100%"/><use x="230.4" xlink:href="#mc8e9ab356d" y="142.629" id="use27" width="100%" height="100%"/><use x="275.04" xlink:href="#mc8e9ab356d" y="182.386" id="use29" width="100%" height="100%"/><use x="297.36" xlink:href="#mc8e9ab356d" y="191.451" id="use31" width="100%" height="100%"/><use x="353.16" xlink:href="#mc8e9ab356d" y="227.108" id="use33" width="100%" height="100%"/></g></g></g></g><defs id="defs43"><clipPath id="p22f64d38d4" stroke-linejoin="round"><path id="rect40" d="M7.2 7.2h357.12v266.112H7.2z"/></clipPath></defs><flowRoot xml:space="preserve" id="flowRoot864" style="line-height:0%;-inkscape-font-specification:'Commando Bold'" transform="matrix(.75 0 0 .75 -.068 .066)" font-style="normal" font-variant="normal" font-weight="700" font-stretch="normal" font-size="5.333" font-family="Commando" letter-spacing="0" word-spacing="0" fill="#000" fill-opacity="1" stroke="none" stroke-width="1" stroke-linecap="butt" stroke-linejoin="miter" stroke-opacity="1"><flowRegion id="flowRegion866" stroke-linecap="butt" stroke-linejoin="round"><path id="rect868" d="M393.034 76.071h1003.187v272.588H393.034z"/></flowRegion><flowPara id="flowPara870" style="-inkscape-font-specification:'Cantarell Bold'" font-style="normal" font-variant="normal" font-weight="700" font-stretch="normal" font-size="160" font-family="Cantarell" stroke-linecap="butt" stroke-linejoin="round">smoothfit</flowPara></flowRoot></svg>