<svg height="268.711" viewBox="0 0 410.754 201.533" width="547.672" xmlns="http://www.w3.org/2000/svg" xmlns:xlink="http://www.w3.org/1999/xlink"><defs><style>*{stroke-linecap:butt;stroke-linejoin:round}</style></defs><g id="figure_1"><path d="M0 201.533h410.754V0H0z" fill="none" id="patch_1"/><g id="axes_1"><path d="M38.483 177.655h357.12V11H38.483z" fill="none" id="patch_2"/><g id="matplotlib.axis_1"><g id="xtick_1"><path clip-path="url(#p3ee38b946c)" d="M38.483 177.655V11" fill="none" stroke="#b0b0b0" stroke-linecap="square" stroke-width=".8" id="line2d_1"/><g id="line2d_2"><defs><path d="M0 0v3.5" id="m37212a8a02" stroke="#000" stroke-width=".8"/></defs><use x="38.483" xlink:href="#m37212a8a02" y="177.655" stroke="#000" stroke-width=".8"/></g><g id="text_1"><defs><path d="M10.594 35.5h62.593v-8.297H10.594z" id="DejaVuSans-8722"/><path d="M12.406 8.297h16.11v55.625l-17.532-3.516v8.985l17.438 3.515h9.86V8.296H54.39V0H12.406z" id="DejaVuSans-49"/><path d="M10.688 12.406H21V0H10.687z" id="DejaVuSans-46"/><path d="M10.797 72.906h38.719v-8.312H19.828v-17.86q2.14.735 4.281 1.094 2.157.36 4.313.36 12.203 0 19.328-6.688 7.14-6.688 7.14-18.11 0-11.765-7.328-18.296-7.328-6.516-20.656-6.516-4.593 0-9.36.781-4.75.782-9.827 2.344v9.922q4.39-2.39 9.078-3.563 4.687-1.171 9.906-1.171 8.453 0 13.375 4.437 4.938 4.438 4.938 12.063 0 7.609-4.938 12.047-4.922 4.453-13.375 4.453-3.953 0-7.89-.875-3.922-.875-8.016-2.735z" id="DejaVuSans-53"/></defs><g transform="matrix(.1 0 0 -.1 26.341 192.254)"><use xlink:href="#DejaVuSans-8722"/><use x="83.789" xlink:href="#DejaVuSans-49"/><use x="147.412" xlink:href="#DejaVuSans-46"/><use x="179.199" xlink:href="#DejaVuSans-53"/></g></g></g><g id="xtick_2"><path clip-path="url(#p3ee38b946c)" d="M98.003 177.655V11" fill="none" stroke="#b0b0b0" stroke-linecap="square" stroke-width=".8" id="line2d_3"/><use x="98.003" xlink:href="#m37212a8a02" y="177.655" stroke="#000" stroke-width=".8" id="line2d_4"/><g id="text_2"><defs><path d="M31.781 66.406q-7.61 0-11.453-7.5Q16.5 51.422 16.5 36.375q0-14.984 3.828-22.484 3.844-7.5 11.453-7.5 7.672 0 11.5 7.5 3.844 7.5 3.844 22.484 0 15.047-3.844 22.531-3.828 7.5-11.5 7.5zm0 7.813q12.266 0 18.735-9.703 6.468-9.688 6.468-28.141 0-18.406-6.468-28.11-6.47-9.687-18.735-9.687-12.25 0-18.718 9.688-6.47 9.703-6.47 28.109 0 18.453 6.47 28.14Q19.53 74.22 31.78 74.22z" id="DejaVuSans-48"/></defs><g transform="matrix(.1 0 0 -.1 85.861 192.254)"><use xlink:href="#DejaVuSans-8722"/><use x="83.789" xlink:href="#DejaVuSans-49"/><use x="147.412" xlink:href="#DejaVuSans-46"/><use x="179.199" xlink:href="#DejaVuSans-48"/></g></g></g><g id="xtick_3"><path clip-path="url(#p3ee38b946c)" d="M157.523 177.655V11" fill="none" stroke="#b0b0b0" stroke-linecap="square" stroke-width=".8" id="line2d_5"/><use x="157.523" xlink:href="#m37212a8a02" y="177.655" stroke="#000" stroke-width=".8" id="line2d_6"/><g transform="matrix(.1 0 0 -.1 145.381 192.254)" id="text_3"><use xlink:href="#DejaVuSans-8722"/><use x="83.789" xlink:href="#DejaVuSans-48"/><use x="147.412" xlink:href="#DejaVuSans-46"/><use x="179.199" xlink:href="#DejaVuSans-53"/></g></g><g id="xtick_4"><path clip-path="url(#p3ee38b946c)" d="M217.043 177.655V11" fill="none" stroke="#b0b0b0" stroke-linecap="square" stroke-width=".8" id="line2d_7"/><use x="217.043" xlink:href="#m37212a8a02" y="177.655" stroke="#000" stroke-width=".8" id="line2d_8"/><g transform="matrix(.1 0 0 -.1 209.091 192.254)" id="text_4"><use xlink:href="#DejaVuSans-48"/><use x="63.623" xlink:href="#DejaVuSans-46"/><use x="95.41" xlink:href="#DejaVuSans-48"/></g></g><g id="xtick_5"><path clip-path="url(#p3ee38b946c)" d="M276.563 177.655V11" fill="none" stroke="#b0b0b0" stroke-linecap="square" stroke-width=".8" id="line2d_9"/><use x="276.563" xlink:href="#m37212a8a02" y="177.655" stroke="#000" stroke-width=".8" id="line2d_10"/><g transform="matrix(.1 0 0 -.1 268.611 192.254)" id="text_5"><use xlink:href="#DejaVuSans-48"/><use x="63.623" xlink:href="#DejaVuSans-46"/><use x="95.41" xlink:href="#DejaVuSans-53"/></g></g><g id="xtick_6"><path clip-path="url(#p3ee38b946c)" d="M336.083 177.655V11" fill="none" stroke="#b0b0b0" stroke-linecap="square" stroke-width=".8" id="line2d_11"/><use x="336.083" xlink:href="#m37212a8a02" y="177.655" stroke="#000" stroke-width=".8" id="line2d_12"/><g transform="matrix(.1 0 0 -.1 328.131 192.254)" id="text_6"><use xlink:href="#DejaVuSans-49"/><use x="63.623" xlink:href="#DejaVuSans-46"/><use x="95.41" xlink:href="#DejaVuSans-48"/></g></g><g id="xtick_7"><path clip-path="url(#p3ee38b946c)" d="M395.603 177.655V11" fill="none" stroke="#b0b0b0" stroke-linecap="square" stroke-width=".8" id="line2d_13"/><use x="395.603" xlink:href="#m37212a8a02" y="177.655" stroke="#000" stroke-width=".8" id="line2d_14"/><g transform="matrix(.1 0 0 -.1 387.651 192.254)" id="text_7"><use xlink:href="#DejaVuSans-49"/><use x="63.623" xlink:href="#DejaVuSans-46"/><use x="95.41" xlink:href="#DejaVuSans-53"/></g></g></g><g id="matplotlib.axis_2"><g id="ytick_1"><path clip-path="url(#p3ee38b946c)" d="M38.483 177.655h357.12" fill="none" stroke="#b0b0b0" stroke-linecap="square" stroke-width=".8" id="line2d_15"/><g id="line2d_16"><defs><path d="M0 0h-3.5" id="mb571b34870" stroke="#000" stroke-width=".8"/></defs><use x="38.483" xlink:href="#mb571b34870" y="177.655" stroke="#000" stroke-width=".8"/></g><g id="text_8"><defs><path d="M19.188 8.297h34.421V0H7.33v8.297q5.609 5.812 15.296 15.594 9.703 9.797 12.188 12.64 4.734 5.313 6.609 9 1.89 3.688 1.89 7.25 0 5.813-4.078 9.469-4.078 3.672-10.625 3.672-4.64 0-9.797-1.61-5.14-1.609-11-4.89v9.969Q13.767 71.78 18.938 73q5.188 1.219 9.485 1.219 11.328 0 18.062-5.672 6.735-5.656 6.735-15.125 0-4.5-1.688-8.531-1.672-4.016-6.125-9.485-1.218-1.422-7.765-8.187-6.532-6.766-18.453-18.922z" id="DejaVuSans-50"/></defs><g transform="matrix(.1 0 0 -.1 7.2 181.454)"><use xlink:href="#DejaVuSans-8722"/><use x="83.789" xlink:href="#DejaVuSans-48"/><use x="147.412" xlink:href="#DejaVuSans-46"/><use x="179.199" xlink:href="#DejaVuSans-50"/></g></g></g><g id="ytick_2"><path clip-path="url(#p3ee38b946c)" d="M38.483 153.847h357.12" fill="none" stroke="#b0b0b0" stroke-linecap="square" stroke-width=".8" id="line2d_17"/><use x="38.483" xlink:href="#mb571b34870" y="153.847" stroke="#000" stroke-width=".8" id="line2d_18"/><g transform="matrix(.1 0 0 -.1 15.58 157.646)" id="text_9"><use xlink:href="#DejaVuSans-48"/><use x="63.623" xlink:href="#DejaVuSans-46"/><use x="95.41" xlink:href="#DejaVuSans-48"/></g></g><g id="ytick_3"><path clip-path="url(#p3ee38b946c)" d="M38.483 130.04h357.12" fill="none" stroke="#b0b0b0" stroke-linecap="square" stroke-width=".8" id="line2d_19"/><use x="38.483" xlink:href="#mb571b34870" y="130.039" stroke="#000" stroke-width=".8" id="line2d_20"/><g transform="matrix(.1 0 0 -.1 15.58 133.838)" id="text_10"><use xlink:href="#DejaVuSans-48"/><use x="63.623" xlink:href="#DejaVuSans-46"/><use x="95.41" xlink:href="#DejaVuSans-50"/></g></g><g id="ytick_4"><path clip-path="url(#p3ee38b946c)" d="M38.483 106.231h357.12" fill="none" stroke="#b0b0b0" stroke-linecap="square" stroke-width=".8" id="line2d_21"/><use x="38.483" xlink:href="#mb571b34870" y="106.231" stroke="#000" stroke-width=".8" id="line2d_22"/><g id="text_11"><defs><path d="M37.797 64.313L12.89 25.39h24.906zm-2.594 8.593H47.61V25.391h10.407v-8.203H47.609V0h-9.812v17.188H4.89v9.515z" id="DejaVuSans-52"/></defs><g transform="matrix(.1 0 0 -.1 15.58 110.03)"><use xlink:href="#DejaVuSans-48"/><use x="63.623" xlink:href="#DejaVuSans-46"/><use x="95.41" xlink:href="#DejaVuSans-52"/></g></g></g><g id="ytick_5"><path clip-path="url(#p3ee38b946c)" d="M38.483 82.423h357.12" fill="none" stroke="#b0b0b0" stroke-linecap="square" stroke-width=".8" id="line2d_23"/><use x="38.483" xlink:href="#mb571b34870" y="82.423" stroke="#000" stroke-width=".8" id="line2d_24"/><g id="text_12"><defs><path d="M33.016 40.375q-6.641 0-10.532-4.547-3.875-4.531-3.875-12.437 0-7.86 3.875-12.438 3.891-4.562 10.532-4.562 6.64 0 10.515 4.562 3.875 4.578 3.875 12.438 0 7.906-3.875 12.437-3.875 4.547-10.515 4.547zm19.578 30.922v-8.984q-3.719 1.75-7.5 2.671-3.782.938-7.5.938-9.766 0-14.922-6.594-5.14-6.594-5.875-19.922 2.875 4.25 7.219 6.516 4.359 2.266 9.578 2.266 10.984 0 17.36-6.672 6.374-6.657 6.374-18.125 0-11.235-6.64-18.032-6.641-6.78-17.672-6.78-12.657 0-19.344 9.687-6.688 9.703-6.688 28.109 0 17.281 8.204 27.563 8.203 10.28 22.015 10.28 3.719 0 7.5-.734t7.89-2.187z" id="DejaVuSans-54"/></defs><g transform="matrix(.1 0 0 -.1 15.58 86.222)"><use xlink:href="#DejaVuSans-48"/><use x="63.623" xlink:href="#DejaVuSans-46"/><use x="95.41" xlink:href="#DejaVuSans-54"/></g></g></g><g id="ytick_6"><path clip-path="url(#p3ee38b946c)" d="M38.483 58.615h357.12" fill="none" stroke="#b0b0b0" stroke-linecap="square" stroke-width=".8" id="line2d_25"/><use x="38.483" xlink:href="#mb571b34870" y="58.615" stroke="#000" stroke-width=".8" id="line2d_26"/><g id="text_13"><defs><path d="M31.781 34.625q-7.031 0-11.062-3.766-4.016-3.765-4.016-10.343 0-6.594 4.016-10.36Q24.75 6.391 31.78 6.391q7.032 0 11.078 3.78 4.063 3.798 4.063 10.345 0 6.578-4.031 10.343-4.016 3.766-11.11 3.766zm-9.86 4.188q-6.343 1.562-9.89 5.906Q8.5 49.079 8.5 55.329q0 8.733 6.219 13.812 6.234 5.078 17.062 5.078 10.89 0 17.094-5.078 6.203-5.079 6.203-13.813 0-6.25-3.547-10.61-3.531-4.343-9.828-5.906 7.125-1.656 11.094-6.5 3.984-4.828 3.984-11.796 0-10.61-6.468-16.282-6.47-5.656-18.532-5.656-12.047 0-18.531 5.656-6.469 5.672-6.469 16.282 0 6.968 4 11.797 4.016 4.843 11.14 6.5zM18.314 54.39q0-5.657 3.53-8.828 3.548-3.172 9.938-3.172 6.36 0 9.938 3.172 3.593 3.171 3.593 8.828 0 5.672-3.593 8.843-3.578 3.172-9.938 3.172-6.39 0-9.937-3.172-3.532-3.172-3.532-8.843z" id="DejaVuSans-56"/></defs><g transform="matrix(.1 0 0 -.1 15.58 62.414)"><use xlink:href="#DejaVuSans-48"/><use x="63.623" xlink:href="#DejaVuSans-46"/><use x="95.41" xlink:href="#DejaVuSans-56"/></g></g></g><g id="ytick_7"><path clip-path="url(#p3ee38b946c)" d="M38.483 34.807h357.12" fill="none" stroke="#b0b0b0" stroke-linecap="square" stroke-width=".8" id="line2d_27"/><use x="38.483" xlink:href="#mb571b34870" y="34.807" stroke="#000" stroke-width=".8" id="line2d_28"/><g transform="matrix(.1 0 0 -.1 15.58 38.606)" id="text_14"><use xlink:href="#DejaVuSans-49"/><use x="63.623" xlink:href="#DejaVuSans-46"/><use x="95.41" xlink:href="#DejaVuSans-48"/></g></g><g id="ytick_8"><path clip-path="url(#p3ee38b946c)" d="M38.483 11h357.12" fill="none" stroke="#b0b0b0" stroke-linecap="square" stroke-width=".8" id="line2d_29"/><use x="38.483" xlink:href="#mb571b34870" y="10.999" stroke="#000" stroke-width=".8" id="line2d_30"/><g transform="matrix(.1 0 0 -.1 15.58 14.798)" id="text_15"><use xlink:href="#DejaVuSans-49"/><use x="63.623" xlink:href="#DejaVuSans-46"/><use x="95.41" xlink:href="#DejaVuSans-50"/></g></g></g><g id="line2d_31"><defs><path d="M-3 3l6-6m-6 0l6 6" id="m8a79c0da97" stroke="#000"/></defs><g clip-path="url(#p3ee38b946c)" stroke="#000"><use x="229.137" xlink:href="#m8a79c0da97" y="66.555"/><use x="266.599" xlink:href="#m8a79c0da97" y="126.151"/><use x="167.261" xlink:href="#m8a79c0da97" y="124.904"/><use x="219.621" xlink:href="#m8a79c0da97" y="24.947"/><use x="310.596" xlink:href="#m8a79c0da97" y="138.251"/><use x="311.392" xlink:href="#m8a79c0da97" y="145.683"/><use x="127.902" xlink:href="#m8a79c0da97" y="155.687"/><use x="147.343" xlink:href="#m8a79c0da97" y="141.674"/><use x="110.256" xlink:href="#m8a79c0da97" y="138.022"/><use x="202.951" xlink:href="#m8a79c0da97" y="58.845"/><use x="105.116" xlink:href="#m8a79c0da97" y="149.049"/><use x="206.766" xlink:href="#m8a79c0da97" y="54.569"/><use x="252.551" xlink:href="#m8a79c0da97" y="123.643"/><use x="164.305" xlink:href="#m8a79c0da97" y="141.379"/><use x="259.006" xlink:href="#m8a79c0da97" y="135.011"/><use x="238.675" xlink:href="#m8a79c0da97" y="79.299"/><use x="103.712" xlink:href="#m8a79c0da97" y="145.478"/><use x="231.055" xlink:href="#m8a79c0da97" y="73.924"/><use x="159.726" xlink:href="#m8a79c0da97" y="138.375"/><use x="196.83" xlink:href="#m8a79c0da97" y="95.404"/><use x="165.504" xlink:href="#m8a79c0da97" y="139.831"/><use x="263.025" xlink:href="#m8a79c0da97" y="123.189"/><use x="202.866" xlink:href="#m8a79c0da97" y="62.369"/><use x="135.35" xlink:href="#m8a79c0da97" y="145.029"/><use x="227.673" xlink:href="#m8a79c0da97" y="59.956"/><use x="283.78" xlink:href="#m8a79c0da97" y="136.784"/><use x="170.942" xlink:href="#m8a79c0da97" y="117.916"/><use x="150.847" xlink:href="#m8a79c0da97" y="141.748"/><use x="190.371" xlink:href="#m8a79c0da97" y="111.293"/><use x="320.937" xlink:href="#m8a79c0da97" y="158.438"/><use x="330.368" xlink:href="#m8a79c0da97" y="158.746"/><use x="258.084" xlink:href="#m8a79c0da97" y="112.93"/><use x="312.95" xlink:href="#m8a79c0da97" y="145.967"/><use x="299.359" xlink:href="#m8a79c0da97" y="136.624"/><use x="187.996" xlink:href="#m8a79c0da97" y="113.868"/><use x="119.958" xlink:href="#m8a79c0da97" y="152.8"/><use x="253.567" xlink:href="#m8a79c0da97" y="113.779"/><use x="230.814" xlink:href="#m8a79c0da97" y="55.231"/><use x="184.084" xlink:href="#m8a79c0da97" y="116.823"/><use x="151.584" xlink:href="#m8a79c0da97" y="150.304"/><use x="194.787" xlink:href="#m8a79c0da97" y="81.651"/><use x="209.648" xlink:href="#m8a79c0da97" y="50.26"/><use x="162.102" xlink:href="#m8a79c0da97" y="129.288"/><use x="167.473" xlink:href="#m8a79c0da97" y="139.676"/><use x="206.969" xlink:href="#m8a79c0da97" y="48.242"/><use x="302.879" xlink:href="#m8a79c0da97" y="137.215"/><use x="237.578" xlink:href="#m8a79c0da97" y="80.181"/><use x="165.496" xlink:href="#m8a79c0da97" y="136.272"/><use x="164.184" xlink:href="#m8a79c0da97" y="128.374"/><use x="206.239" xlink:href="#m8a79c0da97" y="63.717"/><use x="146.907" xlink:href="#m8a79c0da97" y="145.98"/><use x="145.947" xlink:href="#m8a79c0da97" y="143.759"/><use x="220.384" xlink:href="#m8a79c0da97" y="28.126"/><use x="118.77" xlink:href="#m8a79c0da97" y="155.492"/><use x="213.135" xlink:href="#m8a79c0da97" y="28.88"/><use x="184.23" xlink:href="#m8a79c0da97" y="105.675"/><use x="266.489" xlink:href="#m8a79c0da97" y="120.215"/><use x="275.788" xlink:href="#m8a79c0da97" y="140.203"/><use x="262.538" xlink:href="#m8a79c0da97" y="135.281"/><use x="262.083" xlink:href="#m8a79c0da97" y="134.026"/><use x="186.95" xlink:href="#m8a79c0da97" y="100.216"/><use x="257.072" xlink:href="#m8a79c0da97" y="111.665"/><use x="178.914" xlink:href="#m8a79c0da97" y="115.721"/><use x="234.374" xlink:href="#m8a79c0da97" y="76.455"/><use x="175.571" xlink:href="#m8a79c0da97" y="129.41"/><use x="203.983" xlink:href="#m8a79c0da97" y="54.397"/><use x="112.652" xlink:href="#m8a79c0da97" y="139.101"/><use x="155.779" xlink:href="#m8a79c0da97" y="147.939"/><use x="329.322" xlink:href="#m8a79c0da97" y="155.488"/><use x="152.9" xlink:href="#m8a79c0da97" y="131.534"/><use x="262.63" xlink:href="#m8a79c0da97" y="120.045"/><use x="252.868" xlink:href="#m8a79c0da97" y="121.793"/><use x="270.358" xlink:href="#m8a79c0da97" y="139.311"/><use x="211.112" xlink:href="#m8a79c0da97" y="43.41"/><use x="240.057" xlink:href="#m8a79c0da97" y="91.369"/><use x="113.947" xlink:href="#m8a79c0da97" y="157.449"/><use x="115.278" xlink:href="#m8a79c0da97" y="139.649"/><use x="145.375" xlink:href="#m8a79c0da97" y="141.189"/><use x="134.158" xlink:href="#m8a79c0da97" y="138.228"/><use x="121.836" xlink:href="#m8a79c0da97" y="153.25"/><use x="128.785" xlink:href="#m8a79c0da97" y="134.695"/><use x="229.727" xlink:href="#m8a79c0da97" y="55.15"/><use x="142.718" xlink:href="#m8a79c0da97" y="146.505"/><use x="324.679" xlink:href="#m8a79c0da97" y="137.616"/><use x="260.281" xlink:href="#m8a79c0da97" y="121.379"/><use x="226.809" xlink:href="#m8a79c0da97" y="43.844"/><use x="266.368" xlink:href="#m8a79c0da97" y="142.175"/><use x="160.829" xlink:href="#m8a79c0da97" y="146.321"/><use x="318.638" xlink:href="#m8a79c0da97" y="141.871"/><use x="297.798" xlink:href="#m8a79c0da97" y="148.978"/><use x="270.925" xlink:href="#m8a79c0da97" y="134.003"/><use x="212.338" xlink:href="#m8a79c0da97" y="47.464"/><use x="298.491" xlink:href="#m8a79c0da97" y="133.097"/><use x="275.313" xlink:href="#m8a79c0da97" y="136.753"/><use x="255.213" xlink:href="#m8a79c0da97" y="112.674"/><use x="315.602" xlink:href="#m8a79c0da97" y="157.425"/><use x="248.866" xlink:href="#m8a79c0da97" y="111.631"/><use x="185.126" xlink:href="#m8a79c0da97" y="121.712"/><use x="229.624" xlink:href="#m8a79c0da97" y="51.645"/><use x="144.757" xlink:href="#m8a79c0da97" y="143.488"/></g></g><path clip-path="url(#p3ee38b946c)" d="M38.483 133.39l64.281 13.728 1.786-.045 1.786-2.074 1.785-3.544 1.786-2.051 1.785 2.067 1.786 4.18 1.786 1.252 1.785 2.963 1.786 3.234 1.785.936 1.786.296 1.786.141 1.785-1.532 1.786-5.103 1.785-8.199 1.786-3.686 1.786 1.41 1.785 4.354 1.786 4.003 1.785 2.023 1.786.142 1.786-1.315 1.785-2.094 1.786-1.285 1.785.39 1.786.598 1.786-1.122 1.785-2.658 1.786 2.008 1.785 2.926 1.786-.79 1.786-3.628 1.785-4.283 1.786-1.343 1.785.852 1.786-3.042 1.786-6.093 1.785-5.19 1.786.249 1.785 3.135 1.786.522 1.786-4.403 1.785-4.996 1.786-2.345 1.785-.366 1.786-.607 1.786-2.933 1.785.013 1.786-2.215 3.571-16.48 1.786-2.723 1.785-.74 1.786-6.612 1.785-10.46 1.786-9.512 1.786-4.724 1.785-1.203 1.786-2.874 1.785-3.705 1.786-6.116 1.786-8.83 1.785-6.457 1.786-2.99 1.785.167 1.786 2.803 1.786 4.393 1.785 5.928 1.786 7.703 1.785 8.264 1.786 5.033 3.571 13.229 1.786 4.162 1.785 2.375 1.786 3.734 1.786 6.918 1.785 6.234 1.786 4.966 3.571 8.798 1.786 5.004 1.785 4.67 1.786.526 1.785-4.534 1.786-1.467 1.786 5.182 1.785 7.133 1.786 2.865 1.785-.867 1.786.545 1.786 1.978 1.785 3.331 1.786 2.758 1.785 1.179 1.786.645 1.786.441 1.785-.348 1.786-.823 1.785-.7 1.786.021 1.786 1.215 1.785 2.293 3.571 5.558 1.786 2.019 1.786.679 1.785-1.283 1.786-3.869 1.785-5.54 1.786-2.084 1.786.222 1.785-.082 1.786-.235 1.785.665 1.786 2.669 1.786 5.093 1.785 5.47 1.786 3.432 3.571-3.389 1.786 1.747 1.785-3.356 1.786-5.9 1.785-.774 1.786 5.401 8.928 42.476 2.818 13.416" fill="none" stroke="#1f77b4" stroke-linecap="square" stroke-width="1.5" id="line2d_32"/><path d="M38.483 177.655V11" fill="none" stroke="#000" stroke-linecap="square" stroke-width=".8" id="patch_3"/><path d="M395.603 177.655V11" fill="none" stroke="#000" stroke-linecap="square" stroke-width=".8" id="patch_4"/><path d="M38.483 177.655h357.12" fill="none" stroke="#000" stroke-linecap="square" stroke-width=".8" id="patch_5"/><path d="M38.483 11h357.12" fill="none" stroke="#000" stroke-linecap="square" stroke-width=".8" id="patch_6"/></g></g><defs><clipPath id="p3ee38b946c"><path d="M38.483 10.999h357.12v166.656H38.483z"/></clipPath></defs></svg>