<svg height="396.254" viewBox="0 0 394.423 297.19" width="525.898" xmlns="http://www.w3.org/2000/svg" xmlns:xlink="http://www.w3.org/1999/xlink"><defs><style>*{stroke-linecap:butt;stroke-linejoin:round}</style></defs><g id="figure_1"><path d="M0 297.19h394.423V0H0z" fill="none" id="patch_1"/><g id="axes_1"><path d="M30.103 273.312h357.12V7.2H30.103z" fill="none" id="patch_2"/><g id="matplotlib.axis_1"><g id="xtick_1"><path clip-path="url(#p675b49330f)" d="M46.336 273.312V7.2" fill="none" stroke="#b0b0b0" stroke-linecap="square" stroke-width=".8" id="line2d_1"/><g id="line2d_2"><defs><path d="M0 0v3.5" id="mea05906e03" stroke="#000" stroke-width=".8"/></defs><use x="46.336" xlink:href="#mea05906e03" y="273.312" stroke="#000" stroke-width=".8"/></g><g id="text_1"><defs><path d="M10.594 35.5h62.593v-8.297H10.594z" id="DejaVuSans-8722"/><path d="M12.406 8.297h16.11v55.625l-17.532-3.516v8.985l17.438 3.515h9.86V8.296H54.39V0H12.406z" id="DejaVuSans-49"/><path d="M10.688 12.406H21V0H10.687z" id="DejaVuSans-46"/><path d="M10.797 72.906h38.719v-8.312H19.828v-17.86q2.14.735 4.281 1.094 2.157.36 4.313.36 12.203 0 19.328-6.688 7.14-6.688 7.14-18.11 0-11.765-7.328-18.296-7.328-6.516-20.656-6.516-4.593 0-9.36.781-4.75.782-9.827 2.344v9.922q4.39-2.39 9.078-3.563 4.687-1.171 9.906-1.171 8.453 0 13.375 4.437 4.938 4.438 4.938 12.063 0 7.609-4.938 12.047-4.922 4.453-13.375 4.453-3.953 0-7.89-.875-3.922-.875-8.016-2.735z" id="DejaVuSans-53"/></defs><g transform="matrix(.1 0 0 -.1 34.194 287.91)"><use xlink:href="#DejaVuSans-8722"/><use x="83.789" xlink:href="#DejaVuSans-49"/><use x="147.412" xlink:href="#DejaVuSans-46"/><use x="179.199" xlink:href="#DejaVuSans-53"/></g></g></g><g id="xtick_2"><path clip-path="url(#p675b49330f)" d="M100.445 273.312V7.2" fill="none" stroke="#b0b0b0" stroke-linecap="square" stroke-width=".8" id="line2d_3"/><use x="100.445" xlink:href="#mea05906e03" y="273.312" stroke="#000" stroke-width=".8" id="line2d_4"/><g id="text_2"><defs><path d="M31.781 66.406q-7.61 0-11.453-7.5Q16.5 51.422 16.5 36.375q0-14.984 3.828-22.484 3.844-7.5 11.453-7.5 7.672 0 11.5 7.5 3.844 7.5 3.844 22.484 0 15.047-3.844 22.531-3.828 7.5-11.5 7.5zm0 7.813q12.266 0 18.735-9.703 6.468-9.688 6.468-28.141 0-18.406-6.468-28.11-6.47-9.687-18.735-9.687-12.25 0-18.718 9.688-6.47 9.703-6.47 28.109 0 18.453 6.47 28.14Q19.53 74.22 31.78 74.22z" id="DejaVuSans-48"/></defs><g transform="matrix(.1 0 0 -.1 88.304 287.91)"><use xlink:href="#DejaVuSans-8722"/><use x="83.789" xlink:href="#DejaVuSans-49"/><use x="147.412" xlink:href="#DejaVuSans-46"/><use x="179.199" xlink:href="#DejaVuSans-48"/></g></g></g><g id="xtick_3"><path clip-path="url(#p675b49330f)" d="M154.554 273.312V7.2" fill="none" stroke="#b0b0b0" stroke-linecap="square" stroke-width=".8" id="line2d_5"/><use x="154.554" xlink:href="#mea05906e03" y="273.312" stroke="#000" stroke-width=".8" id="line2d_6"/><g transform="matrix(.1 0 0 -.1 142.413 287.91)" id="text_3"><use xlink:href="#DejaVuSans-8722"/><use x="83.789" xlink:href="#DejaVuSans-48"/><use x="147.412" xlink:href="#DejaVuSans-46"/><use x="179.199" xlink:href="#DejaVuSans-53"/></g></g><g id="xtick_4"><path clip-path="url(#p675b49330f)" d="M208.663 273.312V7.2" fill="none" stroke="#b0b0b0" stroke-linecap="square" stroke-width=".8" id="line2d_7"/><use x="208.663" xlink:href="#mea05906e03" y="273.312" stroke="#000" stroke-width=".8" id="line2d_8"/><g transform="matrix(.1 0 0 -.1 200.712 287.91)" id="text_4"><use xlink:href="#DejaVuSans-48"/><use x="63.623" xlink:href="#DejaVuSans-46"/><use x="95.41" xlink:href="#DejaVuSans-48"/></g></g><g id="xtick_5"><path clip-path="url(#p675b49330f)" d="M262.772 273.312V7.2" fill="none" stroke="#b0b0b0" stroke-linecap="square" stroke-width=".8" id="line2d_9"/><use x="262.772" xlink:href="#mea05906e03" y="273.312" stroke="#000" stroke-width=".8" id="line2d_10"/><g transform="matrix(.1 0 0 -.1 254.82 287.91)" id="text_5"><use xlink:href="#DejaVuSans-48"/><use x="63.623" xlink:href="#DejaVuSans-46"/><use x="95.41" xlink:href="#DejaVuSans-53"/></g></g><g id="xtick_6"><path clip-path="url(#p675b49330f)" d="M316.881 273.312V7.2" fill="none" stroke="#b0b0b0" stroke-linecap="square" stroke-width=".8" id="line2d_11"/><use x="316.881" xlink:href="#mea05906e03" y="273.312" stroke="#000" stroke-width=".8" id="line2d_12"/><g transform="matrix(.1 0 0 -.1 308.93 287.91)" id="text_6"><use xlink:href="#DejaVuSans-49"/><use x="63.623" xlink:href="#DejaVuSans-46"/><use x="95.41" xlink:href="#DejaVuSans-48"/></g></g><g id="xtick_7"><path clip-path="url(#p675b49330f)" d="M370.99 273.312V7.2" fill="none" stroke="#b0b0b0" stroke-linecap="square" stroke-width=".8" id="line2d_13"/><use x="370.99" xlink:href="#mea05906e03" y="273.312" stroke="#000" stroke-width=".8" id="line2d_14"/><g transform="matrix(.1 0 0 -.1 363.039 287.91)" id="text_7"><use xlink:href="#DejaVuSans-49"/><use x="63.623" xlink:href="#DejaVuSans-46"/><use x="95.41" xlink:href="#DejaVuSans-53"/></g></g></g><g id="matplotlib.axis_2"><g id="ytick_1"><path clip-path="url(#p675b49330f)" d="M30.103 251.23h357.12" fill="none" stroke="#b0b0b0" stroke-linecap="square" stroke-width=".8" id="line2d_15"/><g id="line2d_16"><defs><path d="M0 0h-3.5" id="m28f6ecbcba" stroke="#000" stroke-width=".8"/></defs><use x="30.103" xlink:href="#m28f6ecbcba" y="251.23" stroke="#000" stroke-width=".8"/></g><g transform="matrix(.1 0 0 -.1 7.2 255.03)" id="text_8"><use xlink:href="#DejaVuSans-48"/><use x="63.623" xlink:href="#DejaVuSans-46"/><use x="95.41" xlink:href="#DejaVuSans-48"/></g></g><g id="ytick_2"><path clip-path="url(#p675b49330f)" d="M30.103 207.067h357.12" fill="none" stroke="#b0b0b0" stroke-linecap="square" stroke-width=".8" id="line2d_17"/><use x="30.103" xlink:href="#m28f6ecbcba" y="207.067" stroke="#000" stroke-width=".8" id="line2d_18"/><g id="text_9"><defs><path d="M19.188 8.297h34.421V0H7.33v8.297q5.609 5.812 15.296 15.594 9.703 9.797 12.188 12.64 4.734 5.313 6.609 9 1.89 3.688 1.89 7.25 0 5.813-4.078 9.469-4.078 3.672-10.625 3.672-4.64 0-9.797-1.61-5.14-1.609-11-4.89v9.969Q13.767 71.78 18.938 73q5.188 1.219 9.485 1.219 11.328 0 18.062-5.672 6.735-5.656 6.735-15.125 0-4.5-1.688-8.531-1.672-4.016-6.125-9.485-1.218-1.422-7.765-8.187-6.532-6.766-18.453-18.922z" id="DejaVuSans-50"/></defs><g transform="matrix(.1 0 0 -.1 7.2 210.866)"><use xlink:href="#DejaVuSans-48"/><use x="63.623" xlink:href="#DejaVuSans-46"/><use x="95.41" xlink:href="#DejaVuSans-50"/></g></g></g><g id="ytick_3"><path clip-path="url(#p675b49330f)" d="M30.103 162.903h357.12" fill="none" stroke="#b0b0b0" stroke-linecap="square" stroke-width=".8" id="line2d_19"/><use x="30.103" xlink:href="#m28f6ecbcba" y="162.903" stroke="#000" stroke-width=".8" id="line2d_20"/><g id="text_10"><defs><path d="M37.797 64.313L12.89 25.39h24.906zm-2.594 8.593H47.61V25.391h10.407v-8.203H47.609V0h-9.812v17.188H4.89v9.515z" id="DejaVuSans-52"/></defs><g transform="matrix(.1 0 0 -.1 7.2 166.702)"><use xlink:href="#DejaVuSans-48"/><use x="63.623" xlink:href="#DejaVuSans-46"/><use x="95.41" xlink:href="#DejaVuSans-52"/></g></g></g><g id="ytick_4"><path clip-path="url(#p675b49330f)" d="M30.103 118.74h357.12" fill="none" stroke="#b0b0b0" stroke-linecap="square" stroke-width=".8" id="line2d_21"/><use x="30.103" xlink:href="#m28f6ecbcba" y="118.739" stroke="#000" stroke-width=".8" id="line2d_22"/><g id="text_11"><defs><path d="M33.016 40.375q-6.641 0-10.532-4.547-3.875-4.531-3.875-12.437 0-7.86 3.875-12.438 3.891-4.562 10.532-4.562 6.64 0 10.515 4.562 3.875 4.578 3.875 12.438 0 7.906-3.875 12.437-3.875 4.547-10.515 4.547zm19.578 30.922v-8.984q-3.719 1.75-7.5 2.671-3.782.938-7.5.938-9.766 0-14.922-6.594-5.14-6.594-5.875-19.922 2.875 4.25 7.219 6.516 4.359 2.266 9.578 2.266 10.984 0 17.36-6.672 6.374-6.657 6.374-18.125 0-11.235-6.64-18.032-6.641-6.78-17.672-6.78-12.657 0-19.344 9.687-6.688 9.703-6.688 28.109 0 17.281 8.204 27.563 8.203 10.28 22.015 10.28 3.719 0 7.5-.734t7.89-2.187z" id="DejaVuSans-54"/></defs><g transform="matrix(.1 0 0 -.1 7.2 122.538)"><use xlink:href="#DejaVuSans-48"/><use x="63.623" xlink:href="#DejaVuSans-46"/><use x="95.41" xlink:href="#DejaVuSans-54"/></g></g></g><g id="ytick_5"><path clip-path="url(#p675b49330f)" d="M30.103 74.576h357.12" fill="none" stroke="#b0b0b0" stroke-linecap="square" stroke-width=".8" id="line2d_23"/><use x="30.103" xlink:href="#m28f6ecbcba" y="74.576" stroke="#000" stroke-width=".8" id="line2d_24"/><g id="text_12"><defs><path d="M31.781 34.625q-7.031 0-11.062-3.766-4.016-3.765-4.016-10.343 0-6.594 4.016-10.36Q24.75 6.391 31.78 6.391q7.032 0 11.078 3.78 4.063 3.798 4.063 10.345 0 6.578-4.031 10.343-4.016 3.766-11.11 3.766zm-9.86 4.188q-6.343 1.562-9.89 5.906Q8.5 49.079 8.5 55.329q0 8.733 6.219 13.812 6.234 5.078 17.062 5.078 10.89 0 17.094-5.078 6.203-5.079 6.203-13.813 0-6.25-3.547-10.61-3.531-4.343-9.828-5.906 7.125-1.656 11.094-6.5 3.984-4.828 3.984-11.796 0-10.61-6.468-16.282-6.47-5.656-18.532-5.656-12.047 0-18.531 5.656-6.469 5.672-6.469 16.282 0 6.968 4 11.797 4.016 4.843 11.14 6.5zM18.314 54.39q0-5.657 3.53-8.828 3.548-3.172 9.938-3.172 6.36 0 9.938 3.172 3.593 3.171 3.593 8.828 0 5.672-3.593 8.843-3.578 3.172-9.938 3.172-6.39 0-9.937-3.172-3.532-3.172-3.532-8.843z" id="DejaVuSans-56"/></defs><g transform="matrix(.1 0 0 -.1 7.2 78.375)"><use xlink:href="#DejaVuSans-48"/><use x="63.623" xlink:href="#DejaVuSans-46"/><use x="95.41" xlink:href="#DejaVuSans-56"/></g></g></g><g id="ytick_6"><path clip-path="url(#p675b49330f)" d="M30.103 30.412h357.12" fill="none" stroke="#b0b0b0" stroke-linecap="square" stroke-width=".8" id="line2d_25"/><use x="30.103" xlink:href="#m28f6ecbcba" y="30.412" stroke="#000" stroke-width=".8" id="line2d_26"/><g transform="matrix(.1 0 0 -.1 7.2 34.211)" id="text_13"><use xlink:href="#DejaVuSans-49"/><use x="63.623" xlink:href="#DejaVuSans-46"/><use x="95.41" xlink:href="#DejaVuSans-48"/></g></g></g><path clip-path="url(#p675b49330f)" d="M46.336 247.373l14.61-.784 12.985-.914 11.363-1.038 9.74-1.138 8.116-1.185 6.493-1.153 6.494-1.387 4.87-1.233 4.87-1.438 4.869-1.69 4.87-2.004 3.246-1.548 3.247-1.75 3.246-1.99 3.247-2.27 3.247-2.606 3.246-3.004 3.247-3.483 3.246-4.06 1.623-2.284 1.624-2.476 1.623-2.688 1.623-2.92 1.624-3.18 1.623-3.463 1.623-3.777 1.623-4.122 1.624-4.502 1.623-4.918 1.623-5.373 1.623-5.866 1.624-6.398 1.623-6.965 1.623-7.562 1.624-8.178 3.246-18.186 3.247-20.31 4.87-31.932 1.623-9.962 1.623-8.991 1.623-7.593 1.624-5.78 1.623-3.625 1.623-1.235 1.623 1.235 1.624 3.624 1.623 5.781 1.623 7.593 1.623 8.991 3.247 20.488 4.87 31.783 3.246 19.324 1.624 8.795 1.623 8.178 1.623 7.562 1.623 6.965 1.624 6.398 1.623 5.866 1.623 5.373 1.624 4.918 1.623 4.502 1.623 4.122 1.623 3.777 1.624 3.463 1.623 3.18 1.623 2.92 3.247 5.164 3.246 4.393 3.247 3.758 3.246 3.233 3.247 2.795 3.246 2.431 3.247 2.124 3.247 1.865 3.246 1.645 3.247 1.458 4.87 1.891 4.87 1.6 4.87 1.366 4.869 1.173 6.493 1.323 6.493 1.102 8.116 1.137 9.74 1.094 9.74.873 11.363.813 14.61.808 1.622.077" fill="none" stroke="#ccc" stroke-linecap="square" stroke-width="1.5" id="line2d_27"/><g id="line2d_28"><defs><path d="M-3 3l6-6m-6 0l6 6" id="ma4ebb70a4f" stroke="#000"/></defs><g clip-path="url(#p675b49330f)" stroke="#000"><use x="100.445" xlink:href="#ma4ebb70a4f" y="240.581"/><use x="104.774" xlink:href="#ma4ebb70a4f" y="232.541"/><use x="109.102" xlink:href="#ma4ebb70a4f" y="236.727"/><use x="113.431" xlink:href="#ma4ebb70a4f" y="238.402"/><use x="117.76" xlink:href="#ma4ebb70a4f" y="242.755"/><use x="122.089" xlink:href="#ma4ebb70a4f" y="231.798"/><use x="126.417" xlink:href="#ma4ebb70a4f" y="239.685"/><use x="130.746" xlink:href="#ma4ebb70a4f" y="218.11"/><use x="135.075" xlink:href="#ma4ebb70a4f" y="213.172"/><use x="139.403" xlink:href="#ma4ebb70a4f" y="236.732"/><use x="143.732" xlink:href="#ma4ebb70a4f" y="216.265"/><use x="148.061" xlink:href="#ma4ebb70a4f" y="224.975"/><use x="152.39" xlink:href="#ma4ebb70a4f" y="219.769"/><use x="156.718" xlink:href="#ma4ebb70a4f" y="199.769"/><use x="161.047" xlink:href="#ma4ebb70a4f" y="232.363"/><use x="165.376" xlink:href="#ma4ebb70a4f" y="225.3"/><use x="169.705" xlink:href="#ma4ebb70a4f" y="220.339"/><use x="174.033" xlink:href="#ma4ebb70a4f" y="174.513"/><use x="178.362" xlink:href="#ma4ebb70a4f" y="164.345"/><use x="182.691" xlink:href="#ma4ebb70a4f" y="144.39"/><use x="187.019" xlink:href="#ma4ebb70a4f" y="119.684"/><use x="191.348" xlink:href="#ma4ebb70a4f" y="103.373"/><use x="195.677" xlink:href="#ma4ebb70a4f" y="90.565"/><use x="200.006" xlink:href="#ma4ebb70a4f" y="48.48"/><use x="204.334" xlink:href="#ma4ebb70a4f" y="55.763"/><use x="208.663" xlink:href="#ma4ebb70a4f" y="24.233"/><use x="212.992" xlink:href="#ma4ebb70a4f" y="54.656"/><use x="217.321" xlink:href="#ma4ebb70a4f" y="41.231"/><use x="221.649" xlink:href="#ma4ebb70a4f" y="87.899"/><use x="225.978" xlink:href="#ma4ebb70a4f" y="120.354"/><use x="230.307" xlink:href="#ma4ebb70a4f" y="151.219"/><use x="234.635" xlink:href="#ma4ebb70a4f" y="148.62"/><use x="238.964" xlink:href="#ma4ebb70a4f" y="178.566"/><use x="243.293" xlink:href="#ma4ebb70a4f" y="186.18"/><use x="247.622" xlink:href="#ma4ebb70a4f" y="220.402"/><use x="251.95" xlink:href="#ma4ebb70a4f" y="201.871"/><use x="256.279" xlink:href="#ma4ebb70a4f" y="208.468"/><use x="260.608" xlink:href="#ma4ebb70a4f" y="213.401"/><use x="264.937" xlink:href="#ma4ebb70a4f" y="203.177"/><use x="269.265" xlink:href="#ma4ebb70a4f" y="218.221"/><use x="273.594" xlink:href="#ma4ebb70a4f" y="235.353"/><use x="277.923" xlink:href="#ma4ebb70a4f" y="234.365"/><use x="282.251" xlink:href="#ma4ebb70a4f" y="224.921"/><use x="286.58" xlink:href="#ma4ebb70a4f" y="254.834"/><use x="290.909" xlink:href="#ma4ebb70a4f" y="229.563"/><use x="295.238" xlink:href="#ma4ebb70a4f" y="230.705"/><use x="299.566" xlink:href="#ma4ebb70a4f" y="252.174"/><use x="303.895" xlink:href="#ma4ebb70a4f" y="256.772"/><use x="308.224" xlink:href="#ma4ebb70a4f" y="249.417"/><use x="312.553" xlink:href="#ma4ebb70a4f" y="248.064"/><use x="316.881" xlink:href="#ma4ebb70a4f" y="239.637"/></g></g><path clip-path="url(#p675b49330f)" d="M75.307 298.19l26.22-60.316 1.623-3.094 1.624-1.62 1.623.39 3.246 3.057 3.247 2.012 1.623 1.63 1.624 1.455 1.623-.36 1.623-3.036 1.623-3.401 1.624-.716 1.623 2.278 1.623 1.363 1.623-3.425 3.247-15.53 1.623-5.187 1.624-.829 1.623 4.594 1.623 8.406 1.623 6.505 1.624-.832 1.623-6.468 1.623-5.758 1.623-.32 1.624 3 1.623 2.519 1.623-.461 1.624-3.929 3.246-14.74 1.623-1.616 1.624 7.656 1.623 11.467 1.623 7.666 1.623.702 1.624-2.587 1.623-2.016 1.623-2.437 1.624-7.004 1.623-14.022 1.623-16.447 1.623-12.592 1.624-6.326 1.623-3.578 1.623-4.652 1.623-6.857 1.624-8.447 3.246-18.599 1.624-8.22 1.623-6.629 1.623-5.187 1.623-4.108 1.624-4.996 1.623-8.904 3.246-28.538 1.624-7.75 1.623.012 1.623.477 1.624-6.24 1.623-10.35 1.623-5.485 1.623 5.375 1.624 9.766 1.623 4.718 1.623-2.798 1.623-2.073 1.624 7.054 1.623 15.667 1.623 17.955 1.624 15.187 3.246 25.383 1.623 12.063 1.624 8.9 1.623 3.174 1.623-.234 1.623 1.853 1.624 7.729 1.623 10.334 1.623 7.974 1.624 4.301 1.623 4.924 1.623 9.742 1.623 12.069 1.624 7.547 1.623-1.646 1.623-6.46 1.623-4.707 1.624.211 1.623 3.06 1.623 3.431 1.624 2.131 1.623-.315 1.623-3.155 1.623-3.432 1.624-.445 1.623 3.892 1.623 6.63 1.623 7.525 1.624 6.868 1.623 4.842 1.623 1.76 1.624-1.16 1.623-3.58 1.623-4.094 1.623-.538 1.624 6.641 1.623 10.402 1.623 6.161 1.623-3.68 1.624-9.15 1.623-7.816 1.623-2.53 1.624 2.314 1.623 6.221 1.623 8.12 1.623 7.322 1.624 4.355 1.623 1.405 1.623-.975 3.247-5.134 1.623-1.574 1.623-.713 1.624-1.022 1.623-2.227 1.623-3.163 16.233-35.681 38.958-85.706" fill="none" stroke="#1f77b4" stroke-linecap="square" stroke-width="1.5" id="line2d_29"/><path d="M30.103 273.312V7.2" fill="none" stroke="#000" stroke-linecap="square" stroke-width=".8" id="patch_3"/><path d="M387.223 273.312V7.2" fill="none" stroke="#000" stroke-linecap="square" stroke-width=".8" id="patch_4"/><path d="M30.103 273.312h357.12" fill="none" stroke="#000" stroke-linecap="square" stroke-width=".8" id="patch_5"/><path d="M30.103 7.2h357.12" fill="none" stroke="#000" stroke-linecap="square" stroke-width=".8" id="patch_6"/></g></g><defs><clipPath id="p675b49330f"><path d="M30.103 7.2h357.12v266.112H30.103z"/></clipPath></defs></svg>