<svg height="401.319" viewBox="0 0 410.754 300.989" width="547.672" xmlns="http://www.w3.org/2000/svg" xmlns:xlink="http://www.w3.org/1999/xlink"><defs><style>*{stroke-linecap:butt;stroke-linejoin:round}</style></defs><g id="figure_1"><path d="M0 300.99h410.754V0H0z" fill="none" id="patch_1"/><g id="axes_1"><path d="M38.483 277.111h357.12V11H38.483z" fill="none" id="patch_2"/><g id="matplotlib.axis_1"><g id="xtick_1"><g id="line2d_1"><defs><path d="M0 0v3.5" id="m75a2a3ada4" stroke="#000" stroke-width=".8"/></defs><use x="38.483" xlink:href="#m75a2a3ada4" y="277.111" stroke="#000" stroke-width=".8"/></g><g id="text_1"><defs><path d="M10.594 35.5h62.593v-8.297H10.594z" id="DejaVuSans-8722"/><path d="M12.406 8.297h16.11v55.625l-17.532-3.516v8.985l17.438 3.515h9.86V8.296H54.39V0H12.406z" id="DejaVuSans-49"/><path d="M10.688 12.406H21V0H10.687z" id="DejaVuSans-46"/><path d="M10.797 72.906h38.719v-8.312H19.828v-17.86q2.14.735 4.281 1.094 2.157.36 4.313.36 12.203 0 19.328-6.688 7.14-6.688 7.14-18.11 0-11.765-7.328-18.296-7.328-6.516-20.656-6.516-4.593 0-9.36.781-4.75.782-9.827 2.344v9.922q4.39-2.39 9.078-3.563 4.687-1.171 9.906-1.171 8.453 0 13.375 4.437 4.938 4.438 4.938 12.063 0 7.609-4.938 12.047-4.922 4.453-13.375 4.453-3.953 0-7.89-.875-3.922-.875-8.016-2.735z" id="DejaVuSans-53"/></defs><g transform="matrix(.1 0 0 -.1 26.341 291.71)"><use xlink:href="#DejaVuSans-8722"/><use x="83.789" xlink:href="#DejaVuSans-49"/><use x="147.412" xlink:href="#DejaVuSans-46"/><use x="179.199" xlink:href="#DejaVuSans-53"/></g></g></g><g id="xtick_2"><use x="98.003" xlink:href="#m75a2a3ada4" y="277.111" stroke="#000" stroke-width=".8" id="line2d_2"/><g id="text_2"><defs><path d="M31.781 66.406q-7.61 0-11.453-7.5Q16.5 51.422 16.5 36.375q0-14.984 3.828-22.484 3.844-7.5 11.453-7.5 7.672 0 11.5 7.5 3.844 7.5 3.844 22.484 0 15.047-3.844 22.531-3.828 7.5-11.5 7.5zm0 7.813q12.266 0 18.735-9.703 6.468-9.688 6.468-28.141 0-18.406-6.468-28.11-6.47-9.687-18.735-9.687-12.25 0-18.718 9.688-6.47 9.703-6.47 28.109 0 18.453 6.47 28.14Q19.53 74.22 31.78 74.22z" id="DejaVuSans-48"/></defs><g transform="matrix(.1 0 0 -.1 85.861 291.71)"><use xlink:href="#DejaVuSans-8722"/><use x="83.789" xlink:href="#DejaVuSans-49"/><use x="147.412" xlink:href="#DejaVuSans-46"/><use x="179.199" xlink:href="#DejaVuSans-48"/></g></g></g><g id="xtick_3"><use x="157.523" xlink:href="#m75a2a3ada4" y="277.111" stroke="#000" stroke-width=".8" id="line2d_3"/><g transform="matrix(.1 0 0 -.1 145.381 291.71)" id="text_3"><use xlink:href="#DejaVuSans-8722"/><use x="83.789" xlink:href="#DejaVuSans-48"/><use x="147.412" xlink:href="#DejaVuSans-46"/><use x="179.199" xlink:href="#DejaVuSans-53"/></g></g><g id="xtick_4"><use x="217.043" xlink:href="#m75a2a3ada4" y="277.111" stroke="#000" stroke-width=".8" id="line2d_4"/><g transform="matrix(.1 0 0 -.1 209.091 291.71)" id="text_4"><use xlink:href="#DejaVuSans-48"/><use x="63.623" xlink:href="#DejaVuSans-46"/><use x="95.41" xlink:href="#DejaVuSans-48"/></g></g><g id="xtick_5"><use x="276.563" xlink:href="#m75a2a3ada4" y="277.111" stroke="#000" stroke-width=".8" id="line2d_5"/><g transform="matrix(.1 0 0 -.1 268.611 291.71)" id="text_5"><use xlink:href="#DejaVuSans-48"/><use x="63.623" xlink:href="#DejaVuSans-46"/><use x="95.41" xlink:href="#DejaVuSans-53"/></g></g><g id="xtick_6"><use x="336.083" xlink:href="#m75a2a3ada4" y="277.111" stroke="#000" stroke-width=".8" id="line2d_6"/><g transform="matrix(.1 0 0 -.1 328.131 291.71)" id="text_6"><use xlink:href="#DejaVuSans-49"/><use x="63.623" xlink:href="#DejaVuSans-46"/><use x="95.41" xlink:href="#DejaVuSans-48"/></g></g><g id="xtick_7"><use x="395.603" xlink:href="#m75a2a3ada4" y="277.111" stroke="#000" stroke-width=".8" id="line2d_7"/><g transform="matrix(.1 0 0 -.1 387.651 291.71)" id="text_7"><use xlink:href="#DejaVuSans-49"/><use x="63.623" xlink:href="#DejaVuSans-46"/><use x="95.41" xlink:href="#DejaVuSans-53"/></g></g></g><g id="matplotlib.axis_2"><g id="ytick_1"><g id="line2d_8"><defs><path d="M0 0h-3.5" id="m1315af33a7" stroke="#000" stroke-width=".8"/></defs><use x="38.483" xlink:href="#m1315af33a7" y="277.111" stroke="#000" stroke-width=".8"/></g><g id="text_8"><defs><path d="M19.188 8.297h34.421V0H7.33v8.297q5.609 5.812 15.296 15.594 9.703 9.797 12.188 12.64 4.734 5.313 6.609 9 1.89 3.688 1.89 7.25 0 5.813-4.078 9.469-4.078 3.672-10.625 3.672-4.64 0-9.797-1.61-5.14-1.609-11-4.89v9.969Q13.767 71.78 18.938 73q5.188 1.219 9.485 1.219 11.328 0 18.062-5.672 6.735-5.656 6.735-15.125 0-4.5-1.688-8.531-1.672-4.016-6.125-9.485-1.218-1.422-7.765-8.187-6.532-6.766-18.453-18.922z" id="DejaVuSans-50"/></defs><g transform="matrix(.1 0 0 -.1 7.2 280.91)"><use xlink:href="#DejaVuSans-8722"/><use x="83.789" xlink:href="#DejaVuSans-48"/><use x="147.412" xlink:href="#DejaVuSans-46"/><use x="179.199" xlink:href="#DejaVuSans-50"/></g></g></g><g id="ytick_2"><use x="38.483" xlink:href="#m1315af33a7" y="239.095" stroke="#000" stroke-width=".8" id="line2d_9"/><g transform="matrix(.1 0 0 -.1 15.58 242.894)" id="text_9"><use xlink:href="#DejaVuSans-48"/><use x="63.623" xlink:href="#DejaVuSans-46"/><use x="95.41" xlink:href="#DejaVuSans-48"/></g></g><g id="ytick_3"><use x="38.483" xlink:href="#m1315af33a7" y="201.079" stroke="#000" stroke-width=".8" id="line2d_10"/><g transform="matrix(.1 0 0 -.1 15.58 204.878)" id="text_10"><use xlink:href="#DejaVuSans-48"/><use x="63.623" xlink:href="#DejaVuSans-46"/><use x="95.41" xlink:href="#DejaVuSans-50"/></g></g><g id="ytick_4"><use x="38.483" xlink:href="#m1315af33a7" y="163.063" stroke="#000" stroke-width=".8" id="line2d_11"/><g id="text_11"><defs><path d="M37.797 64.313L12.89 25.39h24.906zm-2.594 8.593H47.61V25.391h10.407v-8.203H47.609V0h-9.812v17.188H4.89v9.515z" id="DejaVuSans-52"/></defs><g transform="matrix(.1 0 0 -.1 15.58 166.862)"><use xlink:href="#DejaVuSans-48"/><use x="63.623" xlink:href="#DejaVuSans-46"/><use x="95.41" xlink:href="#DejaVuSans-52"/></g></g></g><g id="ytick_5"><use x="38.483" xlink:href="#m1315af33a7" y="125.047" stroke="#000" stroke-width=".8" id="line2d_12"/><g id="text_12"><defs><path d="M33.016 40.375q-6.641 0-10.532-4.547-3.875-4.531-3.875-12.437 0-7.86 3.875-12.438 3.891-4.562 10.532-4.562 6.64 0 10.515 4.562 3.875 4.578 3.875 12.438 0 7.906-3.875 12.437-3.875 4.547-10.515 4.547zm19.578 30.922v-8.984q-3.719 1.75-7.5 2.671-3.782.938-7.5.938-9.766 0-14.922-6.594-5.14-6.594-5.875-19.922 2.875 4.25 7.219 6.516 4.359 2.266 9.578 2.266 10.984 0 17.36-6.672 6.374-6.657 6.374-18.125 0-11.235-6.64-18.032-6.641-6.78-17.672-6.78-12.657 0-19.344 9.687-6.688 9.703-6.688 28.109 0 17.281 8.204 27.563 8.203 10.28 22.015 10.28 3.719 0 7.5-.734t7.89-2.187z" id="DejaVuSans-54"/></defs><g transform="matrix(.1 0 0 -.1 15.58 128.846)"><use xlink:href="#DejaVuSans-48"/><use x="63.623" xlink:href="#DejaVuSans-46"/><use x="95.41" xlink:href="#DejaVuSans-54"/></g></g></g><g id="ytick_6"><use x="38.483" xlink:href="#m1315af33a7" y="87.031" stroke="#000" stroke-width=".8" id="line2d_13"/><g id="text_13"><defs><path d="M31.781 34.625q-7.031 0-11.062-3.766-4.016-3.765-4.016-10.343 0-6.594 4.016-10.36Q24.75 6.391 31.78 6.391q7.032 0 11.078 3.78 4.063 3.798 4.063 10.345 0 6.578-4.031 10.343-4.016 3.766-11.11 3.766zm-9.86 4.188q-6.343 1.562-9.89 5.906Q8.5 49.079 8.5 55.329q0 8.733 6.219 13.812 6.234 5.078 17.062 5.078 10.89 0 17.094-5.078 6.203-5.079 6.203-13.813 0-6.25-3.547-10.61-3.531-4.343-9.828-5.906 7.125-1.656 11.094-6.5 3.984-4.828 3.984-11.796 0-10.61-6.468-16.282-6.47-5.656-18.532-5.656-12.047 0-18.531 5.656-6.469 5.672-6.469 16.282 0 6.968 4 11.797 4.016 4.843 11.14 6.5zM18.314 54.39q0-5.657 3.53-8.828 3.548-3.172 9.938-3.172 6.36 0 9.938 3.172 3.593 3.171 3.593 8.828 0 5.672-3.593 8.843-3.578 3.172-9.938 3.172-6.39 0-9.937-3.172-3.532-3.172-3.532-8.843z" id="DejaVuSans-56"/></defs><g transform="matrix(.1 0 0 -.1 15.58 90.83)"><use xlink:href="#DejaVuSans-48"/><use x="63.623" xlink:href="#DejaVuSans-46"/><use x="95.41" xlink:href="#DejaVuSans-56"/></g></g></g><g id="ytick_7"><use x="38.483" xlink:href="#m1315af33a7" y="49.015" stroke="#000" stroke-width=".8" id="line2d_14"/><g transform="matrix(.1 0 0 -.1 15.58 52.814)" id="text_14"><use xlink:href="#DejaVuSans-49"/><use x="63.623" xlink:href="#DejaVuSans-46"/><use x="95.41" xlink:href="#DejaVuSans-48"/></g></g><g id="ytick_8"><use x="38.483" xlink:href="#m1315af33a7" y="10.999" stroke="#000" stroke-width=".8" id="line2d_15"/><g transform="matrix(.1 0 0 -.1 15.58 14.798)" id="text_15"><use xlink:href="#DejaVuSans-49"/><use x="63.623" xlink:href="#DejaVuSans-46"/><use x="95.41" xlink:href="#DejaVuSans-50"/></g></g></g><g id="line2d_16"><defs><path d="M-3 3l6-6m-6 0l6 6" id="m78d2aa4b4c" stroke="#000"/></defs><g clip-path="url(#p981ac615dd)" stroke="#000"><use x="98.003" xlink:href="#m78d2aa4b4c" y="231.784"/><use x="109.907" xlink:href="#m78d2aa4b4c" y="230.15"/><use x="121.811" xlink:href="#m78d2aa4b4c" y="227.914"/><use x="133.715" xlink:href="#m78d2aa4b4c" y="224.75"/><use x="145.619" xlink:href="#m78d2aa4b4c" y="220.087"/><use x="157.523" xlink:href="#m78d2aa4b4c" y="212.877"/><use x="169.427" xlink:href="#m78d2aa4b4c" y="201.079"/><use x="181.331" xlink:href="#m78d2aa4b4c" y="180.609"/><use x="193.235" xlink:href="#m78d2aa4b4c" y="144.055"/><use x="205.139" xlink:href="#m78d2aa4b4c" y="87.031"/><use x="217.043" xlink:href="#m78d2aa4b4c" y="49.015"/><use x="228.947" xlink:href="#m78d2aa4b4c" y="87.031"/><use x="240.851" xlink:href="#m78d2aa4b4c" y="144.055"/><use x="252.755" xlink:href="#m78d2aa4b4c" y="180.609"/><use x="264.659" xlink:href="#m78d2aa4b4c" y="201.079"/><use x="276.563" xlink:href="#m78d2aa4b4c" y="212.877"/><use x="288.467" xlink:href="#m78d2aa4b4c" y="220.087"/><use x="300.371" xlink:href="#m78d2aa4b4c" y="224.75"/><use x="312.275" xlink:href="#m78d2aa4b4c" y="227.914"/><use x="324.179" xlink:href="#m78d2aa4b4c" y="230.15"/><use x="336.083" xlink:href="#m78d2aa4b4c" y="231.784"/></g></g><path clip-path="url(#p981ac615dd)" d="M38.483 235.775l17.856-.762 14.285-.814 12.499-.927 10.713-1.019 8.928-1.065 7.143-1.038 7.142-1.252 5.357-1.117 5.357-1.305 5.357-1.539 5.356-1.828 3.572-1.416 3.57-1.606 3.572-1.828 3.571-2.093 3.571-2.406 3.572-2.783 3.57-3.235 3.572-3.782 1.786-2.13 1.785-2.314 1.786-2.515 1.785-2.736 1.786-2.981 1.786-3.251 1.785-3.549 1.786-3.875 1.785-4.234 1.786-4.624 1.786-5.05 1.785-5.507 1.786-5.996 1.785-6.51 1.786-7.038 1.786-7.571 3.57-16.635 5.358-27.358 3.57-17.636 1.786-7.74 1.786-6.536 1.786-4.976 1.785-3.12 1.786-1.063 1.785 1.063 1.786 3.12 1.786 4.976 1.785 6.536 1.786 7.74 3.571 17.636 5.357 27.358 3.571 16.635 1.786 7.57 1.785 7.04 1.786 6.509 1.785 5.996 1.786 5.507 1.786 5.05 1.785 4.624 1.786 4.234 1.785 3.875 1.786 3.549 1.786 3.25 1.785 2.982 1.786 2.736 1.785 2.515 1.786 2.313 3.571 4.097 3.571 3.495 3.572 2.999 3.57 2.586 3.572 2.243 3.571 1.954 3.571 1.713 3.572 1.506 5.356 1.941 5.357 1.628 5.357 1.378 5.357 1.175 7.142 1.315 7.143 1.087 8.928 1.112 10.713 1.06 10.714.84 14.285.872 16.07.74 5.357.205" fill="none" stroke="#ccc" stroke-linecap="square" stroke-width="1.5" id="line2d_17"/><path clip-path="url(#p981ac615dd)" d="M80.661 301.99l4.247-9.617 5.357-11.687 5.357-11.204 5.357-10.72 5.357-10.236 5.356-9.752 5.357-9.27 5.357-8.785 5.357-8.302 5.357-7.818 5.356-7.335 5.357-6.851 5.357-6.367 5.357-5.884 3.571-3.654 3.571-3.44 3.571-3.223 3.572-3.01 3.57-2.793 3.572-2.58 3.571-2.364 3.571-2.15 3.572-1.934 3.57-1.72 3.572-1.504 3.571-1.29 3.571-1.074 3.572-.86 3.57-.645 3.572-.43 3.571-.214h3.571l3.572.215 3.57.43 3.572.644 3.571.86 3.571 1.075 3.572 1.29 3.57 1.504 3.572 1.72 3.571 1.934 3.571 2.149 3.572 2.364 3.57 2.58 3.572 2.794 3.571 3.009 3.571 3.224 3.572 3.439 3.57 3.654 5.358 5.884 5.356 6.367 5.357 6.851 5.357 7.335 5.357 7.818 5.357 8.302 5.356 8.785 5.357 9.27 5.357 9.752 5.357 10.236 5.357 10.72 5.356 11.204 5.357 11.687 4.247 9.616" fill="none" stroke="#1f77b4" stroke-linecap="square" stroke-width="1.5" id="line2d_18"/><path clip-path="url(#p981ac615dd)" d="M67.745-1l2.879 32.025 3.57 35.767 3.572 31.788 1.786 14.475 1.785 13.566 1.786 12.686 1.785 11.833 1.786 11.009 1.786 10.21 1.785 9.44 1.786 8.694 1.785 7.975 1.786 7.28 1.786 6.614 1.785 5.969 1.786 5.35 1.785 4.754 1.786 4.183 1.786 3.636 1.785 3.11 1.786 2.607 1.785 2.127 1.786 1.668 1.786 1.231 1.785.816 1.786.42 1.785.046 1.786-.309 1.786-.644 1.785-.96 1.786-1.256 1.785-1.535 1.786-1.794 1.786-2.037 1.785-2.262 1.786-2.47 3.571-5.496 3.571-6.13 3.571-6.643 5.357-10.667 7.143-14.965 8.928-18.791 5.356-10.795 3.572-6.837 3.57-6.468 3.572-6.038 3.571-5.553 3.571-5.017 3.572-4.438 3.57-3.819 1.786-1.667 1.786-1.502 1.786-1.332 1.785-1.16 1.786-.986 1.785-.809 1.786-.63 1.786-.453 1.785-.271 1.786-.09 1.785.09 1.786.271 1.786.452 1.785.631 1.786.81 1.785.985 1.786 1.16 1.786 1.332 1.785 1.502 1.786 1.667 3.571 3.82 3.571 4.437 3.571 5.017 3.572 5.553 3.57 6.038 3.572 6.468 3.571 6.837 5.357 10.795 7.142 15.002 8.928 18.754 5.357 10.667 3.571 6.642 3.572 6.131 3.57 5.496 1.786 2.47 1.786 2.262 1.786 2.037 1.785 1.794 1.786 1.535 1.785 1.257 1.786.96 1.786.643 1.785.31 1.786-.046 1.785-.42 1.786-.817 1.786-1.231 1.785-1.668 1.786-2.127 1.785-2.608 1.786-3.11 1.786-3.635 1.785-4.183 1.786-4.754 1.785-5.35 1.786-5.97 1.786-6.612 1.785-7.281 1.786-7.975 1.785-8.694 1.786-9.44 1.786-10.21 1.785-11.009 1.786-11.833 1.785-12.686 1.786-13.566 1.786-14.475 1.785-15.41 3.571-33.749 3.572-37.846L366.34-1" fill="none" stroke="#ff7f0e" stroke-linecap="square" stroke-width="1.5" id="line2d_19"/><path clip-path="url(#p981ac615dd)" d="M96.744-1l.664 152.972 1.487 150.017m6.906 0l.535-12.57 1.785-34.959 1.786-24.303 1.785-13.81 1.786-5.333 1.786.507 1.785 3.816 3.571 9.89 1.786 3.721 1.786 2.224 1.785.714 1.786-.567 1.785-1.484 5.357-6.174 1.786-1.675 1.785-1.237 1.786-.79 1.786-.407 1.785-.138 3.571-.032 1.786-.171 1.786-.426 1.785-.751 1.786-1.111 1.785-1.467 1.786-1.79 1.786-2.053 3.57-4.607 7.143-9.435 5.357-6.868 1.786-2.526 1.785-2.81 1.786-3.206 1.785-3.716 1.786-4.324 1.786-5.012 1.785-5.754 1.786-6.517 1.785-7.262 1.786-7.95 3.571-17.548 7.143-36.839 1.785-8.31 1.786-7.488 1.785-6.455 1.786-5.232 1.786-3.855 1.785-2.36 1.786-.796 1.785.795 1.786 2.361 1.786 3.855 1.785 5.232 1.786 6.455 1.785 7.489 1.786 8.31 3.571 18.16 5.357 27.68 1.786 8.545 1.785 7.951 1.786 7.262 1.785 6.517 1.786 5.754 1.786 5.012 1.785 4.324 1.786 3.716 1.785 3.207 1.786 2.81 3.571 4.874 7.143 9.156 7.142 9.405 1.786 2.053 1.785 1.79 1.786 1.467 1.785 1.11 1.786.752 1.786.426 1.785.171 5.357.17 1.786.407 1.785.79 1.786 1.237 1.785 1.675 5.357 6.174 1.786 1.484 1.785.567 1.786-.714 1.786-2.224 1.785-3.722 3.571-9.89 1.786-3.815 1.786-.507 1.785 5.334 1.786 13.81 1.785 24.302 2.321 47.53m6.906 0l1.487-150.018L337.341-1" fill="none" stroke="#2ca02c" stroke-linecap="square" stroke-width="1.5" id="line2d_20"/><path d="M38.483 277.111V11" fill="none" stroke="#000" stroke-linecap="square" stroke-width=".8" id="patch_3"/><path d="M395.603 277.111V11" fill="none" stroke="#000" stroke-linecap="square" stroke-width=".8" id="patch_4"/><path d="M38.483 277.111h357.12" fill="none" stroke="#000" stroke-linecap="square" stroke-width=".8" id="patch_5"/><path d="M38.483 11h357.12" fill="none" stroke="#000" stroke-linecap="square" stroke-width=".8" id="patch_6"/><g id="legend_1"><path d="M265.251 77.712h123.352q2 0 2-2V17.999q0-2-2-2H265.25q-2 0-2 2v57.713q0 2 2 2z" fill="#fff" opacity=".8" stroke="#ccc" id="patch_7"/><path d="M267.251 24.098h20" fill="none" stroke="#ccc" stroke-linecap="square" stroke-width="1.5" id="line2d_21"/><g id="text_16"><defs><path d="M25.39 72.906h8.297L8.297-9.28H0z" id="DejaVuSans-47"/><path d="M31 75.875q-6.531-11.219-9.719-22.219-3.172-10.984-3.172-22.265 0-11.266 3.203-22.328Q24.517-2 31-13.188h-7.813Q15.875-1.704 12.235 9.375q-3.64 11.078-3.64 22.016 0 10.89 3.61 21.922 3.624 11.046 10.983 22.562z" id="DejaVuSans-40"/><path d="M46 62.703V35.5h27.188v-8.297H46V0h-8.203v27.203H10.594V35.5h27.203v27.203z" id="DejaVuSans-43"/><path d="M47.016 60.89L29.5 51.423l17.516-9.531-2.828-4.782-16.407 9.907V28.609H22.22v18.407L5.812 37.109l-2.828 4.782 17.532 9.53-17.532 9.47 2.829 4.828 16.406-9.906v18.406h5.562V55.813l16.407 9.906z" id="DejaVuSans-42"/><path d="M54.89 54.688l-19.78-26.61L55.905 0H45.313L29.39 21.484 13.484 0H2.875l21.25 28.61L4.687 54.687h10.594l14.5-19.485 14.5 19.484z" id="DejaVuSans-120"/><path d="M8.016 75.875h7.812q7.313-11.516 10.953-22.563 3.64-11.03 3.64-21.921 0-10.938-3.64-22.016-3.64-11.078-10.953-22.563H8.016Q14.5-2 17.703 9.063q3.203 11.063 3.203 22.329 0 11.28-3.203 22.265-3.203 11-9.687 22.219z" id="DejaVuSans-41"/></defs><g transform="matrix(.1 0 0 -.1 295.251 27.598)"><use xlink:href="#DejaVuSans-49"/><use x="63.623" xlink:href="#DejaVuSans-32"/><use x="95.41" xlink:href="#DejaVuSans-47"/><use x="129.102" xlink:href="#DejaVuSans-32"/><use x="160.889" xlink:href="#DejaVuSans-40"/><use x="199.902" xlink:href="#DejaVuSans-49"/><use x="263.525" xlink:href="#DejaVuSans-32"/><use x="295.313" xlink:href="#DejaVuSans-43"/><use x="379.102" xlink:href="#DejaVuSans-32"/><use x="410.889" xlink:href="#DejaVuSans-50"/><use x="474.512" xlink:href="#DejaVuSans-53"/><use x="538.135" xlink:href="#DejaVuSans-32"/><use x="569.922" xlink:href="#DejaVuSans-42"/><use x="619.922" xlink:href="#DejaVuSans-32"/><use x="651.709" xlink:href="#DejaVuSans-120"/><use x="710.889" xlink:href="#DejaVuSans-42"/><use x="760.889" xlink:href="#DejaVuSans-42"/><use x="810.889" xlink:href="#DejaVuSans-50"/><use x="874.512" xlink:href="#DejaVuSans-41"/></g></g><path d="M267.251 38.776h20" fill="none" stroke="#1f77b4" stroke-linecap="square" stroke-width="1.5" id="line2d_23"/><g id="text_17"><defs><path d="M18.11 8.203v-29H9.077v75.484h9.031v-8.296q2.844 4.875 7.157 7.234Q29.594 56 35.594 56q9.968 0 16.187-7.906 6.235-7.907 6.235-20.797T51.78 6.484q-6.218-7.906-16.187-7.906-6 0-10.328 2.375-4.313 2.375-7.157 7.25zm30.578 19.094q0 9.906-4.079 15.547-4.078 5.64-11.203 5.64-7.14 0-11.218-5.64-4.079-5.64-4.079-15.547 0-9.906 4.078-15.547 4.079-5.64 11.22-5.64 7.124 0 11.202 5.64t4.078 15.547z" id="DejaVuSans-112"/><path d="M30.61 48.39q-7.22 0-11.422-5.64-4.204-5.64-4.204-15.453 0-9.813 4.172-15.453 4.188-5.64 11.453-5.64 7.188 0 11.375 5.655 4.203 5.672 4.203 15.438 0 9.719-4.203 15.406-4.187 5.688-11.375 5.688zm0 7.61q11.718 0 18.406-7.625 6.703-7.61 6.703-21.078 0-13.422-6.703-21.078-6.688-7.64-18.407-7.64-11.765 0-18.437 7.64-6.656 7.656-6.656 21.078 0 13.469 6.656 21.078Q18.844 56 30.609 56z" id="DejaVuSans-111"/><path d="M9.422 75.984h8.984V0H9.422z" id="DejaVuSans-108"/><path d="M32.172-5.078q-3.797-9.766-7.422-12.735-3.61-2.984-9.656-2.984H7.906v7.516h5.282q3.703 0 5.75 1.765Q21-9.766 23.483-3.219l1.61 4.094-22.11 53.813H12.5l17.094-42.766 17.093 42.766h9.516z" id="DejaVuSans-121"/><path d="M37.11 75.984V68.5h-8.594q-4.828 0-6.72-1.953-1.874-1.953-1.874-7.031v-4.828h14.797v-6.985H19.922V0H10.89v47.703H2.297v6.984h8.594V58.5q0 9.125 4.25 13.297 4.25 4.187 13.468 4.187z" id="DejaVuSans-102"/><path d="M9.422 54.688h8.984V0H9.422zm0 21.296h8.984v-11.39H9.422z" id="DejaVuSans-105"/><path d="M18.313 70.219V54.688h18.5v-6.985h-18.5V18.016q0-6.688 1.828-8.594 1.828-1.906 7.453-1.906h9.218V0h-9.218q-10.407 0-14.36 3.875-3.953 3.89-3.953 14.14v29.688H2.687v6.984h6.594V70.22z" id="DejaVuSans-116"/></defs><g transform="matrix(.1 0 0 -.1 295.251 42.276)"><use xlink:href="#DejaVuSans-112"/><use x="63.477" xlink:href="#DejaVuSans-111"/><use x="124.658" xlink:href="#DejaVuSans-108"/><use x="152.441" xlink:href="#DejaVuSans-121"/><use x="211.621" xlink:href="#DejaVuSans-102"/><use x="246.826" xlink:href="#DejaVuSans-105"/><use x="274.609" xlink:href="#DejaVuSans-116"/><use x="313.818" xlink:href="#DejaVuSans-32"/><use x="345.605" xlink:href="#DejaVuSans-50"/></g></g><path d="M267.251 53.454h20" fill="none" stroke="#ff7f0e" stroke-linecap="square" stroke-width="1.5" id="line2d_25"/><g transform="matrix(.1 0 0 -.1 295.251 56.954)" id="text_18"><use xlink:href="#DejaVuSans-112"/><use x="63.477" xlink:href="#DejaVuSans-111"/><use x="124.658" xlink:href="#DejaVuSans-108"/><use x="152.441" xlink:href="#DejaVuSans-121"/><use x="211.621" xlink:href="#DejaVuSans-102"/><use x="246.826" xlink:href="#DejaVuSans-105"/><use x="274.609" xlink:href="#DejaVuSans-116"/><use x="313.818" xlink:href="#DejaVuSans-32"/><use x="345.605" xlink:href="#DejaVuSans-52"/></g><path d="M267.251 68.132h20" fill="none" stroke="#2ca02c" stroke-linecap="square" stroke-width="1.5" id="line2d_27"/><g transform="matrix(.1 0 0 -.1 295.251 71.632)" id="text_19"><use xlink:href="#DejaVuSans-112"/><use x="63.477" xlink:href="#DejaVuSans-111"/><use x="124.658" xlink:href="#DejaVuSans-108"/><use x="152.441" xlink:href="#DejaVuSans-121"/><use x="211.621" xlink:href="#DejaVuSans-102"/><use x="246.826" xlink:href="#DejaVuSans-105"/><use x="274.609" xlink:href="#DejaVuSans-116"/><use x="313.818" xlink:href="#DejaVuSans-32"/><use x="345.605" xlink:href="#DejaVuSans-49"/><use x="409.229" xlink:href="#DejaVuSans-54"/></g></g></g></g><defs><clipPath id="p981ac615dd"><path d="M38.483 10.999h357.12v266.112H38.483z"/></clipPath></defs></svg>