<svg xmlns="http://www.w3.org/2000/svg" width="500" height="233.333"><defs><clipPath id="a"><path d="M43.29 66h179.987v96H43.29Zm0 0"/></clipPath></defs><path d="M-63.438-123.16h669.895c.125 0 .227.101.227.226V301.56a.227.227 0 0 1-.227.226H-63.437a.227.227 0 0 1-.227-.226v-424.493c0-.125.102-.226.227-.226Zm0 0" style="stroke:none;fill-rule:nonzero;fill:#59f;fill-opacity:1"/><g clip-path="url(#a)"><path d="m7.2 224.118 10.712-1.38 8.928-1.34 8.929-1.566 7.146-1.45 7.138-1.643 7.146-1.891 5.355-1.612 5.356-1.79 5.356-2.008 5.355-2.263 5.364-2.542 5.355-2.883 3.565-2.14 3.573-2.332 3.573-2.542 3.573-2.783 3.573-3.046 3.565-3.34 3.573-3.666 3.573-4.023 3.573-4.425 3.566-4.86 3.573-5.34 3.573-5.86 3.573-6.409 3.565-7.006 3.573-7.604 3.573-8.2 3.573-8.781 3.573-9.277 5.355-14.587 7.139-19.485 3.572-9.021 1.783-4.154 1.79-3.837 1.783-3.464 1.79-3.039 1.783-2.565 1.783-2.046 1.79-1.496 1.783-.899 1.782-.31 1.79.31 1.783.899 1.79 1.496 1.783 2.046 1.783 2.565 1.79 3.039 1.783 3.464 1.79 3.837 3.565 8.564 3.573 9.378 12.502 34.001 3.565 9.037 3.573 8.503 3.573 7.905 3.573 7.301 3.573 6.704 3.565 6.131 3.573 5.588 3.573 5.1 3.573 4.635 3.565 4.224 3.573 3.836 3.573 3.504 3.573 3.185 3.573 2.914 3.566 2.659 3.573 2.433 3.573 2.232 5.355 3.008 5.356 2.65 5.355 2.349 5.364 2.092 5.355 1.86 5.356 1.667 7.138 1.96 7.146 1.706 7.138 1.488 8.929 1.62 8.928 1.38 10.72 1.418 1.782.217" style="fill:none;stroke-width:10;stroke-linecap:butt;stroke-linejoin:round;stroke:#fdffff;stroke-opacity:1;stroke-miterlimit:4" transform="matrix(.504 0 0 .504 39.66 45.978)"/></g><path d="m52.02 161.441 2.52-2.52 2.519 2.52 2.52-2.52-2.52-2.519 2.52-2.52-2.52-2.519-2.52 2.52-2.52-2.52-2.519 2.52 2.52 2.52-2.52 2.519ZM74.516 152.27l2.52-2.52 2.523 2.52 2.52-2.52-2.52-2.52 2.52-2.52-2.52-2.519-2.524 2.52-2.52-2.52-2.519 2.52 2.52 2.52-2.52 2.519ZM85.766 148.477l2.52-2.52 2.519 2.52 2.52-2.52-2.52-2.52 2.52-2.519-2.52-2.52-2.52 2.52-2.52-2.52-2.519 2.52 2.52 2.52-2.52 2.519ZM108.266 120.848l2.52-2.52 2.519 2.52 2.52-2.52-2.52-2.52 2.52-2.519-2.52-2.523-2.52 2.523-2.52-2.523-2.519 2.523 2.52 2.52-2.52 2.52ZM130.762 75.27l2.52-2.52 2.523 2.52 2.52-2.52-2.52-2.52 2.52-2.52-2.52-2.519-2.524 2.52-2.52-2.52-2.519 2.52 2.52 2.52-2.52 2.519ZM142.012 90.172l2.52-2.52 2.519 2.52 2.523-2.52-2.523-2.52 2.523-2.519-2.523-2.52-2.52 2.52-2.52-2.52-2.519 2.52 2.52 2.52-2.52 2.52ZM153.262 122.902l2.52-2.52 2.519 2.52 2.52-2.52-2.52-2.519 2.52-2.52-2.52-2.519-2.52 2.52-2.52-2.52-2.519 2.52 2.52 2.52-2.52 2.519ZM175.762 142.941l2.52-2.52 2.519 2.52 2.52-2.52-2.52-2.519 2.52-2.523-2.52-2.52-2.52 2.52-2.52-2.52-2.519 2.52 2.52 2.523-2.52 2.52ZM187.008 147.508l2.523-2.52 2.52 2.52 2.52-2.52-2.52-2.52 2.52-2.519-2.52-2.52-2.52 2.52-2.523-2.52-2.52 2.52 2.52 2.52-2.52 2.52ZM215.133 165.48l2.52-2.52 2.519 2.52 2.52-2.52-2.52-2.519 2.52-2.52-2.52-2.519-2.52 2.52-2.52-2.52-2.519 2.52 2.52 2.52-2.52 2.519Zm0 0" style="stroke:none;fill-rule:nonzero;fill:#ffcc81;fill-opacity:1"/><path d="M205.55 111.617c8.106 0 12.821-3.566 12.821-9.433 0-11.008-16.57-7.317-16.57-12.278 0-1.754 2.054-2.844 5.683-2.844 2.422 0 5.325.485 8.043 1.27l1.575-5.805c-2.723-.968-6.168-1.511-9.497-1.511-8.406 0-13.304 3.386-13.304 9.433 0 10.95 16.39 6.774 16.39 12.098 0 1.875-1.937 3.023-5.261 3.023-2.844 0-6.774-.785-9.86-1.996l-1.691 5.746c3.387 1.453 7.68 2.297 11.672 2.297ZM224.402 111.012h7.743V89.844c1.69-1.328 3.687-1.992 5.867-1.992 4.23 0 5.804 2.66 5.804 6.105v17.055h7.68V92.566c0-.906-.121-1.754-.242-2.539 1.816-1.453 3.871-2.175 6.11-2.175 4.113 0 5.804 2.476 5.804 6.105v17.055h7.684V92.566c0-7.015-4.176-11.43-10.829-11.43-4.05 0-7.738 1.634-10.402 4.477-1.812-2.843-4.957-4.476-8.95-4.476-3.507 0-6.835 1.27-9.437 3.508l-1.328-3.024h-5.504ZM291.023 111.617c9.313 0 15.543-6.347 15.543-15.785 0-9.012-5.746-14.816-14.578-14.816-9.312 0-15.543 6.289-15.543 15.785 0 8.949 5.688 14.816 14.578 14.816Zm.664-6.531c-4.535 0-7.437-3.508-7.437-8.95 0-5.323 2.66-8.59 7.016-8.59 4.535 0 7.5 3.571 7.5 9.075 0 5.2-2.723 8.465-7.079 8.465ZM325.277 111.617c9.317 0 15.543-6.347 15.543-15.785 0-9.012-5.742-14.816-14.574-14.816-9.312 0-15.543 6.289-15.543 15.785 0 8.949 5.684 14.816 14.574 14.816Zm.668-6.531c-4.539 0-7.441-3.508-7.441-8.95 0-5.323 2.664-8.59 7.016-8.59 4.539 0 7.5 3.571 7.5 9.075 0 5.2-2.723 8.465-7.075 8.465ZM358.508 111.438c1.996 0 4.172-.426 6.047-1.028l-1.575-5.504c-.843.364-1.875.543-2.78.543-2.782 0-4.536-1.633-4.536-4.172V87.79h7.379v-6.168h-7.379v-8.527h-7.621v8.527h-4.113v6.168h4.113v13.973c0 5.925 3.934 9.675 10.465 9.675ZM369.934 111.012h7.617V90.207c1.754-1.633 3.691-2.355 5.93-2.355 3.808 0 5.746 2.113 5.746 6.105v17.055h7.68V92.566c0-7.074-4.114-11.43-10.825-11.43-3.148 0-6.05 1.028-8.531 3.087V66.32h-7.617ZM405.992 111.012h7.442V87.789h8.464v-6.168h-8.464v-4.656c0-3.149 1.691-4.84 4.898-4.84 1.512 0 3.387.3 4.477.906l1.57-5.562c-1.875-1.09-4.172-1.754-6.652-1.754-7.016 0-11.735 4.777-11.735 11.914v3.992h-4.535v6.168h4.535Zm24.559-34.836c2.902 0 4.777-1.813 4.777-4.715 0-2.906-1.875-4.781-4.777-4.781-2.906 0-4.719 1.875-4.719 4.78 0 2.903 1.813 4.716 4.719 4.716Zm-3.871 34.836h7.68v-29.39h-7.68ZM454.305 111.438c1.996 0 4.175-.426 6.05-1.028l-1.574-5.504c-.847.364-1.875.543-2.781.543-2.781 0-4.535-1.633-4.535-4.172V87.79h7.379v-6.168h-7.38v-8.527h-7.62v8.527h-4.114v6.168h4.114v13.973c0 5.925 3.93 9.675 10.46 9.675Zm0 0" style="stroke:none;fill-rule:nonzero;fill:#fff;fill-opacity:1"/></svg>