<svg height="292.156" viewBox="0 0 394.423 219.117" width="525.898" xmlns="http://www.w3.org/2000/svg" xmlns:xlink="http://www.w3.org/1999/xlink"><defs><style>*{stroke-linecap:butt;stroke-linejoin:round}</style></defs><g id="figure_1"><path d="M0 219.117h394.423V0H0z" fill="none" id="patch_1"/><g id="axes_1"><path d="M30.103 195.239h357.12V7.2H30.103z" fill="none" id="patch_2"/><g id="matplotlib.axis_1"><g id="xtick_1"><path clip-path="url(#p1ee4e77cb1)" d="M46.336 195.239V7.2" fill="none" stroke="#b0b0b0" stroke-linecap="square" stroke-width=".8" id="line2d_1"/><g id="line2d_2"><defs><path d="M0 0v3.5" id="m2215a6b23e" stroke="#000" stroke-width=".8"/></defs><use x="46.336" xlink:href="#m2215a6b23e" y="195.239" stroke="#000" stroke-width=".8"/></g><g id="text_1"><defs><path d="M10.594 35.5h62.593v-8.297H10.594z" id="DejaVuSans-8722"/><path d="M12.406 8.297h16.11v55.625l-17.532-3.516v8.985l17.438 3.515h9.86V8.296H54.39V0H12.406z" id="DejaVuSans-49"/><path d="M10.688 12.406H21V0H10.687z" id="DejaVuSans-46"/><path d="M31.781 66.406q-7.61 0-11.453-7.5Q16.5 51.422 16.5 36.375q0-14.984 3.828-22.484 3.844-7.5 11.453-7.5 7.672 0 11.5 7.5 3.844 7.5 3.844 22.484 0 15.047-3.844 22.531-3.828 7.5-11.5 7.5zm0 7.813q12.266 0 18.735-9.703 6.468-9.688 6.468-28.141 0-18.406-6.468-28.11-6.47-9.687-18.735-9.687-12.25 0-18.718 9.688-6.47 9.703-6.47 28.109 0 18.453 6.47 28.14Q19.53 74.22 31.78 74.22z" id="DejaVuSans-48"/></defs><g transform="matrix(.1 0 0 -.1 31.013 209.837)"><use xlink:href="#DejaVuSans-8722"/><use x="83.789" xlink:href="#DejaVuSans-49"/><use x="147.412" xlink:href="#DejaVuSans-46"/><use x="179.199" xlink:href="#DejaVuSans-48"/><use x="242.822" xlink:href="#DejaVuSans-48"/></g></g></g><g id="xtick_2"><path clip-path="url(#p1ee4e77cb1)" d="M86.918 195.239V7.2" fill="none" stroke="#b0b0b0" stroke-linecap="square" stroke-width=".8" id="line2d_3"/><use x="86.918" xlink:href="#m2215a6b23e" y="195.239" stroke="#000" stroke-width=".8" id="line2d_4"/><g id="text_2"><defs><path d="M8.203 72.906h46.875v-4.203L28.61 0H18.312L43.22 64.594H8.203z" id="DejaVuSans-55"/><path d="M10.797 72.906h38.719v-8.312H19.828v-17.86q2.14.735 4.281 1.094 2.157.36 4.313.36 12.203 0 19.328-6.688 7.14-6.688 7.14-18.11 0-11.765-7.328-18.296-7.328-6.516-20.656-6.516-4.593 0-9.36.781-4.75.782-9.827 2.344v9.922q4.39-2.39 9.078-3.563 4.687-1.171 9.906-1.171 8.453 0 13.375 4.437 4.938 4.438 4.938 12.063 0 7.609-4.938 12.047-4.922 4.453-13.375 4.453-3.953 0-7.89-.875-3.922-.875-8.016-2.735z" id="DejaVuSans-53"/></defs><g transform="matrix(.1 0 0 -.1 71.595 209.837)"><use xlink:href="#DejaVuSans-8722"/><use x="83.789" xlink:href="#DejaVuSans-48"/><use x="147.412" xlink:href="#DejaVuSans-46"/><use x="179.199" xlink:href="#DejaVuSans-55"/><use x="242.822" xlink:href="#DejaVuSans-53"/></g></g></g><g id="xtick_3"><path clip-path="url(#p1ee4e77cb1)" d="M127.5 195.239V7.2" fill="none" stroke="#b0b0b0" stroke-linecap="square" stroke-width=".8" id="line2d_5"/><use x="127.499" xlink:href="#m2215a6b23e" y="195.239" stroke="#000" stroke-width=".8" id="line2d_6"/><g transform="matrix(.1 0 0 -.1 112.177 209.837)" id="text_3"><use xlink:href="#DejaVuSans-8722"/><use x="83.789" xlink:href="#DejaVuSans-48"/><use x="147.412" xlink:href="#DejaVuSans-46"/><use x="179.199" xlink:href="#DejaVuSans-53"/><use x="242.822" xlink:href="#DejaVuSans-48"/></g></g><g id="xtick_4"><path clip-path="url(#p1ee4e77cb1)" d="M168.081 195.239V7.2" fill="none" stroke="#b0b0b0" stroke-linecap="square" stroke-width=".8" id="line2d_7"/><use x="168.081" xlink:href="#m2215a6b23e" y="195.239" stroke="#000" stroke-width=".8" id="line2d_8"/><g id="text_4"><defs><path d="M19.188 8.297h34.421V0H7.33v8.297q5.609 5.812 15.296 15.594 9.703 9.797 12.188 12.64 4.734 5.313 6.609 9 1.89 3.688 1.89 7.25 0 5.813-4.078 9.469-4.078 3.672-10.625 3.672-4.64 0-9.797-1.61-5.14-1.609-11-4.89v9.969Q13.767 71.78 18.938 73q5.188 1.219 9.485 1.219 11.328 0 18.062-5.672 6.735-5.656 6.735-15.125 0-4.5-1.688-8.531-1.672-4.016-6.125-9.485-1.218-1.422-7.765-8.187-6.532-6.766-18.453-18.922z" id="DejaVuSans-50"/></defs><g transform="matrix(.1 0 0 -.1 152.759 209.837)"><use xlink:href="#DejaVuSans-8722"/><use x="83.789" xlink:href="#DejaVuSans-48"/><use x="147.412" xlink:href="#DejaVuSans-46"/><use x="179.199" xlink:href="#DejaVuSans-50"/><use x="242.822" xlink:href="#DejaVuSans-53"/></g></g></g><g id="xtick_5"><path clip-path="url(#p1ee4e77cb1)" d="M208.663 195.239V7.2" fill="none" stroke="#b0b0b0" stroke-linecap="square" stroke-width=".8" id="line2d_9"/><use x="208.663" xlink:href="#m2215a6b23e" y="195.239" stroke="#000" stroke-width=".8" id="line2d_10"/><g transform="matrix(.1 0 0 -.1 197.53 209.837)" id="text_5"><use xlink:href="#DejaVuSans-48"/><use x="63.623" xlink:href="#DejaVuSans-46"/><use x="95.41" xlink:href="#DejaVuSans-48"/><use x="159.033" xlink:href="#DejaVuSans-48"/></g></g><g id="xtick_6"><path clip-path="url(#p1ee4e77cb1)" d="M249.245 195.239V7.2" fill="none" stroke="#b0b0b0" stroke-linecap="square" stroke-width=".8" id="line2d_11"/><use x="249.245" xlink:href="#m2215a6b23e" y="195.239" stroke="#000" stroke-width=".8" id="line2d_12"/><g transform="matrix(.1 0 0 -.1 238.112 209.837)" id="text_6"><use xlink:href="#DejaVuSans-48"/><use x="63.623" xlink:href="#DejaVuSans-46"/><use x="95.41" xlink:href="#DejaVuSans-50"/><use x="159.033" xlink:href="#DejaVuSans-53"/></g></g><g id="xtick_7"><path clip-path="url(#p1ee4e77cb1)" d="M289.827 195.239V7.2" fill="none" stroke="#b0b0b0" stroke-linecap="square" stroke-width=".8" id="line2d_13"/><use x="289.827" xlink:href="#m2215a6b23e" y="195.239" stroke="#000" stroke-width=".8" id="line2d_14"/><g transform="matrix(.1 0 0 -.1 278.694 209.837)" id="text_7"><use xlink:href="#DejaVuSans-48"/><use x="63.623" xlink:href="#DejaVuSans-46"/><use x="95.41" xlink:href="#DejaVuSans-53"/><use x="159.033" xlink:href="#DejaVuSans-48"/></g></g><g id="xtick_8"><path clip-path="url(#p1ee4e77cb1)" d="M330.409 195.239V7.2" fill="none" stroke="#b0b0b0" stroke-linecap="square" stroke-width=".8" id="line2d_15"/><use x="330.409" xlink:href="#m2215a6b23e" y="195.239" stroke="#000" stroke-width=".8" id="line2d_16"/><g transform="matrix(.1 0 0 -.1 319.276 209.837)" id="text_8"><use xlink:href="#DejaVuSans-48"/><use x="63.623" xlink:href="#DejaVuSans-46"/><use x="95.41" xlink:href="#DejaVuSans-55"/><use x="159.033" xlink:href="#DejaVuSans-53"/></g></g><g id="xtick_9"><path clip-path="url(#p1ee4e77cb1)" d="M370.99 195.239V7.2" fill="none" stroke="#b0b0b0" stroke-linecap="square" stroke-width=".8" id="line2d_17"/><use x="370.99" xlink:href="#m2215a6b23e" y="195.239" stroke="#000" stroke-width=".8" id="line2d_18"/><g transform="matrix(.1 0 0 -.1 359.858 209.837)" id="text_9"><use xlink:href="#DejaVuSans-49"/><use x="63.623" xlink:href="#DejaVuSans-46"/><use x="95.41" xlink:href="#DejaVuSans-48"/><use x="159.033" xlink:href="#DejaVuSans-48"/></g></g></g><g id="matplotlib.axis_2"><g id="ytick_1"><path clip-path="url(#p1ee4e77cb1)" d="M30.103 182.617h357.12" fill="none" stroke="#b0b0b0" stroke-linecap="square" stroke-width=".8" id="line2d_19"/><g id="line2d_20"><defs><path d="M0 0h-3.5" id="m3ec06fb208" stroke="#000" stroke-width=".8"/></defs><use x="30.103" xlink:href="#m3ec06fb208" y="182.617" stroke="#000" stroke-width=".8"/></g><g transform="matrix(.1 0 0 -.1 7.2 186.416)" id="text_10"><use xlink:href="#DejaVuSans-48"/><use x="63.623" xlink:href="#DejaVuSans-46"/><use x="95.41" xlink:href="#DejaVuSans-48"/></g></g><g id="ytick_2"><path clip-path="url(#p1ee4e77cb1)" d="M30.103 150.152h357.12" fill="none" stroke="#b0b0b0" stroke-linecap="square" stroke-width=".8" id="line2d_21"/><use x="30.103" xlink:href="#m3ec06fb208" y="150.152" stroke="#000" stroke-width=".8" id="line2d_22"/><g transform="matrix(.1 0 0 -.1 7.2 153.95)" id="text_11"><use xlink:href="#DejaVuSans-48"/><use x="63.623" xlink:href="#DejaVuSans-46"/><use x="95.41" xlink:href="#DejaVuSans-50"/></g></g><g id="ytick_3"><path clip-path="url(#p1ee4e77cb1)" d="M30.103 117.686h357.12" fill="none" stroke="#b0b0b0" stroke-linecap="square" stroke-width=".8" id="line2d_23"/><use x="30.103" xlink:href="#m3ec06fb208" y="117.686" stroke="#000" stroke-width=".8" id="line2d_24"/><g id="text_12"><defs><path d="M37.797 64.313L12.89 25.39h24.906zm-2.594 8.593H47.61V25.391h10.407v-8.203H47.609V0h-9.812v17.188H4.89v9.515z" id="DejaVuSans-52"/></defs><g transform="matrix(.1 0 0 -.1 7.2 121.485)"><use xlink:href="#DejaVuSans-48"/><use x="63.623" xlink:href="#DejaVuSans-46"/><use x="95.41" xlink:href="#DejaVuSans-52"/></g></g></g><g id="ytick_4"><path clip-path="url(#p1ee4e77cb1)" d="M30.103 85.22h357.12" fill="none" stroke="#b0b0b0" stroke-linecap="square" stroke-width=".8" id="line2d_25"/><use x="30.103" xlink:href="#m3ec06fb208" y="85.221" stroke="#000" stroke-width=".8" id="line2d_26"/><g id="text_13"><defs><path d="M33.016 40.375q-6.641 0-10.532-4.547-3.875-4.531-3.875-12.437 0-7.86 3.875-12.438 3.891-4.562 10.532-4.562 6.64 0 10.515 4.562 3.875 4.578 3.875 12.438 0 7.906-3.875 12.437-3.875 4.547-10.515 4.547zm19.578 30.922v-8.984q-3.719 1.75-7.5 2.671-3.782.938-7.5.938-9.766 0-14.922-6.594-5.14-6.594-5.875-19.922 2.875 4.25 7.219 6.516 4.359 2.266 9.578 2.266 10.984 0 17.36-6.672 6.374-6.657 6.374-18.125 0-11.235-6.64-18.032-6.641-6.78-17.672-6.78-12.657 0-19.344 9.687-6.688 9.703-6.688 28.109 0 17.281 8.204 27.563 8.203 10.28 22.015 10.28 3.719 0 7.5-.734t7.89-2.187z" id="DejaVuSans-54"/></defs><g transform="matrix(.1 0 0 -.1 7.2 89.02)"><use xlink:href="#DejaVuSans-48"/><use x="63.623" xlink:href="#DejaVuSans-46"/><use x="95.41" xlink:href="#DejaVuSans-54"/></g></g></g><g id="ytick_5"><path clip-path="url(#p1ee4e77cb1)" d="M30.103 52.755h357.12" fill="none" stroke="#b0b0b0" stroke-linecap="square" stroke-width=".8" id="line2d_27"/><use x="30.103" xlink:href="#m3ec06fb208" y="52.755" stroke="#000" stroke-width=".8" id="line2d_28"/><g id="text_14"><defs><path d="M31.781 34.625q-7.031 0-11.062-3.766-4.016-3.765-4.016-10.343 0-6.594 4.016-10.36Q24.75 6.391 31.78 6.391q7.032 0 11.078 3.78 4.063 3.798 4.063 10.345 0 6.578-4.031 10.343-4.016 3.766-11.11 3.766zm-9.86 4.188q-6.343 1.562-9.89 5.906Q8.5 49.079 8.5 55.329q0 8.733 6.219 13.812 6.234 5.078 17.062 5.078 10.89 0 17.094-5.078 6.203-5.079 6.203-13.813 0-6.25-3.547-10.61-3.531-4.343-9.828-5.906 7.125-1.656 11.094-6.5 3.984-4.828 3.984-11.796 0-10.61-6.468-16.282-6.47-5.656-18.532-5.656-12.047 0-18.531 5.656-6.469 5.672-6.469 16.282 0 6.968 4 11.797 4.016 4.843 11.14 6.5zM18.314 54.39q0-5.657 3.53-8.828 3.548-3.172 9.938-3.172 6.36 0 9.938 3.172 3.593 3.171 3.593 8.828 0 5.672-3.593 8.843-3.578 3.172-9.938 3.172-6.39 0-9.937-3.172-3.532-3.172-3.532-8.843z" id="DejaVuSans-56"/></defs><g transform="matrix(.1 0 0 -.1 7.2 56.554)"><use xlink:href="#DejaVuSans-48"/><use x="63.623" xlink:href="#DejaVuSans-46"/><use x="95.41" xlink:href="#DejaVuSans-56"/></g></g></g><g id="ytick_6"><path clip-path="url(#p1ee4e77cb1)" d="M30.103 20.29h357.12" fill="none" stroke="#b0b0b0" stroke-linecap="square" stroke-width=".8" id="line2d_29"/><use x="30.103" xlink:href="#m3ec06fb208" y="20.29" stroke="#000" stroke-width=".8" id="line2d_30"/><g transform="matrix(.1 0 0 -.1 7.2 24.089)" id="text_15"><use xlink:href="#DejaVuSans-49"/><use x="63.623" xlink:href="#DejaVuSans-46"/><use x="95.41" xlink:href="#DejaVuSans-48"/></g></g></g><path clip-path="url(#p1ee4e77cb1)" d="M46.336 176.374l12.35-1.023 10.723-1.102 9.425-1.185 8.45-1.285 7.474-1.358 6.824-1.47 6.175-1.561 5.525-1.627 5.2-1.77 4.549-1.776 4.225-1.874 3.9-1.955 3.9-2.206 3.574-2.279 3.25-2.315 3.25-2.581 3.25-2.885 2.924-2.89 2.925-3.207 2.925-3.56 2.6-3.496 2.6-3.842 2.6-4.223 2.6-4.638 2.6-5.088 2.599-5.567 2.6-6.073 2.925-7.45 2.924-8.097 3.25-9.688 4.225-13.401 6.5-20.722 2.6-7.482 1.95-4.974 1.624-3.597 1.3-2.455 1.3-2.033 1.3-1.576.975-.863.975-.581.975-.293h.975l.975.293.974.58.975.864.975 1.138 1.3 1.922 1.3 2.353 1.625 3.485 1.625 4.008 1.95 5.369 2.6 7.84L228 62.795l5.2 16.506 3.249 9.62 2.925 8.027 2.925 7.378 2.6 6.008 2.6 5.506 2.599 5.03 2.6 4.584 2.6 4.173 2.6 3.797 2.924 3.865 2.925 3.478 2.925 3.133 2.925 2.825 3.25 2.821 3.25 2.525 3.574 2.48 3.575 2.208 3.9 2.14 4.224 2.046 4.225 1.803 4.55 1.712 5.2 1.708 5.524 1.571 6.175 1.512 6.5 1.36 7.474 1.33 8.124 1.212 9.1 1.133 10.4 1.065 12.023.999.325.024" fill="none" stroke="#000" stroke-linecap="square" stroke-opacity=".2" stroke-width="1.5" id="line2d_31"/><g id="line2d_32"><defs><path d="M-3 3l6-6m-6 0l6 6" id="me9b2bb7398" stroke="#000"/></defs><g clip-path="url(#p1ee4e77cb1)" stroke="#000"><use x="46.336" xlink:href="#me9b2bb7398" y="174.789"/><use x="52.829" xlink:href="#me9b2bb7398" y="168.878"/><use x="59.322" xlink:href="#me9b2bb7398" y="171.956"/><use x="65.815" xlink:href="#me9b2bb7398" y="173.187"/><use x="72.308" xlink:href="#me9b2bb7398" y="176.387"/><use x="78.801" xlink:href="#me9b2bb7398" y="168.332"/><use x="85.294" xlink:href="#me9b2bb7398" y="174.13"/><use x="91.787" xlink:href="#me9b2bb7398" y="158.27"/><use x="98.281" xlink:href="#me9b2bb7398" y="154.64"/><use x="104.774" xlink:href="#me9b2bb7398" y="171.959"/><use x="111.267" xlink:href="#me9b2bb7398" y="156.913"/><use x="117.76" xlink:href="#me9b2bb7398" y="163.316"/><use x="124.253" xlink:href="#me9b2bb7398" y="159.49"/><use x="130.746" xlink:href="#me9b2bb7398" y="144.787"/><use x="137.239" xlink:href="#me9b2bb7398" y="168.748"/><use x="143.732" xlink:href="#me9b2bb7398" y="163.556"/><use x="150.225" xlink:href="#me9b2bb7398" y="159.909"/><use x="156.718" xlink:href="#me9b2bb7398" y="126.221"/><use x="163.211" xlink:href="#me9b2bb7398" y="118.746"/><use x="169.705" xlink:href="#me9b2bb7398" y="104.077"/><use x="176.198" xlink:href="#me9b2bb7398" y="85.915"/><use x="182.691" xlink:href="#me9b2bb7398" y="73.925"/><use x="189.184" xlink:href="#me9b2bb7398" y="64.509"/><use x="195.677" xlink:href="#me9b2bb7398" y="33.572"/><use x="202.17" xlink:href="#me9b2bb7398" y="38.926"/><use x="208.663" xlink:href="#me9b2bb7398" y="15.747"/><use x="215.156" xlink:href="#me9b2bb7398" y="38.112"/><use x="221.649" xlink:href="#me9b2bb7398" y="28.243"/><use x="228.142" xlink:href="#me9b2bb7398" y="62.549"/><use x="234.635" xlink:href="#me9b2bb7398" y="86.408"/><use x="241.129" xlink:href="#me9b2bb7398" y="109.097"/><use x="247.622" xlink:href="#me9b2bb7398" y="107.186"/><use x="254.115" xlink:href="#me9b2bb7398" y="129.2"/><use x="260.608" xlink:href="#me9b2bb7398" y="134.798"/><use x="267.101" xlink:href="#me9b2bb7398" y="159.955"/><use x="273.594" xlink:href="#me9b2bb7398" y="146.333"/><use x="280.087" xlink:href="#me9b2bb7398" y="151.182"/><use x="286.58" xlink:href="#me9b2bb7398" y="154.808"/><use x="293.073" xlink:href="#me9b2bb7398" y="147.292"/><use x="299.566" xlink:href="#me9b2bb7398" y="158.351"/><use x="306.059" xlink:href="#me9b2bb7398" y="170.945"/><use x="312.553" xlink:href="#me9b2bb7398" y="170.219"/><use x="319.046" xlink:href="#me9b2bb7398" y="163.277"/><use x="325.539" xlink:href="#me9b2bb7398" y="185.267"/><use x="332.032" xlink:href="#me9b2bb7398" y="166.689"/><use x="338.525" xlink:href="#me9b2bb7398" y="167.529"/><use x="345.018" xlink:href="#me9b2bb7398" y="183.311"/><use x="351.511" xlink:href="#me9b2bb7398" y="186.691"/><use x="358.004" xlink:href="#me9b2bb7398" y="181.284"/><use x="364.497" xlink:href="#me9b2bb7398" y="180.289"/><use x="370.99" xlink:href="#me9b2bb7398" y="174.095"/></g></g><path clip-path="url(#p1ee4e77cb1)" d="M46.336 174.758l6.493-.903 6.493-.691 6.493-.736 6.493-1.061 6.493-1.57 6.493-2.084 6.493-2.396 6.494-2.35 6.493-1.892 6.493-1.127 6.493-.3 6.493.234 6.493.104 6.493-.992 6.493-3.18 6.493-6.362 6.493-10.178 6.493-14.07 6.494-17.352 6.493-19.347 6.493-19.52 6.493-17.595 6.493-13.628 6.493-8.012 6.493-1.427 6.493 5.285 6.493 11.255 6.493 15.749 6.493 18.292 6.494 18.742 6.493 17.297 6.493 14.448 6.493 10.856 6.493 7.227 6.493 4.17 6.493 2.091 6.493 1.138 6.493 1.201 6.493 1.969 6.493 3.02 6.494 3.937 6.493 4.397 6.493 4.238 6.493 3.481 6.493 2.302 6.493.967 6.493-.24 6.493-1.103 6.493-1.519 6.493-1.519" fill="none" stroke="#1f77b4" stroke-linecap="square" stroke-width="1.5" id="line2d_33"/><path d="M30.103 195.239V7.2" fill="none" stroke="#000" stroke-linecap="square" stroke-width=".8" id="patch_3"/><path d="M387.223 195.239V7.2" fill="none" stroke="#000" stroke-linecap="square" stroke-width=".8" id="patch_4"/><path d="M30.103 195.239h357.12" fill="none" stroke="#000" stroke-linecap="square" stroke-width=".8" id="patch_5"/><path d="M30.103 7.2h357.12" fill="none" stroke="#000" stroke-linecap="square" stroke-width=".8" id="patch_6"/></g></g><defs><clipPath id="p1ee4e77cb1"><path d="M30.103 7.2h357.12v188.039H30.103z"/></clipPath></defs></svg>