<svg height="401.319" viewBox="0 0 410.754 300.989" width="547.672" xmlns="http://www.w3.org/2000/svg" xmlns:xlink="http://www.w3.org/1999/xlink"><defs><style>*{stroke-linecap:butt;stroke-linejoin:round}</style></defs><g id="figure_1"><path d="M0 300.99h410.754V0H0z" fill="none" id="patch_1"/><g id="axes_1"><path d="M38.483 277.111h357.12V11H38.483z" fill="none" id="patch_2"/><g id="matplotlib.axis_1"><g id="xtick_1"><g id="line2d_1"><defs><path d="M0 0v3.5" id="m937c7a0ba6" stroke="#000" stroke-width=".8"/></defs><use x="38.483" xlink:href="#m937c7a0ba6" y="277.111" stroke="#000" stroke-width=".8"/></g><g id="text_1"><defs><path d="M10.594 35.5h62.593v-8.297H10.594z" id="DejaVuSans-8722"/><path d="M12.406 8.297h16.11v55.625l-17.532-3.516v8.985l17.438 3.515h9.86V8.296H54.39V0H12.406z" id="DejaVuSans-49"/><path d="M10.688 12.406H21V0H10.687z" id="DejaVuSans-46"/><path d="M10.797 72.906h38.719v-8.312H19.828v-17.86q2.14.735 4.281 1.094 2.157.36 4.313.36 12.203 0 19.328-6.688 7.14-6.688 7.14-18.11 0-11.765-7.328-18.296-7.328-6.516-20.656-6.516-4.593 0-9.36.781-4.75.782-9.827 2.344v9.922q4.39-2.39 9.078-3.563 4.687-1.171 9.906-1.171 8.453 0 13.375 4.437 4.938 4.438 4.938 12.063 0 7.609-4.938 12.047-4.922 4.453-13.375 4.453-3.953 0-7.89-.875-3.922-.875-8.016-2.735z" id="DejaVuSans-53"/></defs><g transform="matrix(.1 0 0 -.1 26.341 291.71)"><use xlink:href="#DejaVuSans-8722"/><use x="83.789" xlink:href="#DejaVuSans-49"/><use x="147.412" xlink:href="#DejaVuSans-46"/><use x="179.199" xlink:href="#DejaVuSans-53"/></g></g></g><g id="xtick_2"><use x="98.003" xlink:href="#m937c7a0ba6" y="277.111" stroke="#000" stroke-width=".8" id="line2d_2"/><g id="text_2"><defs><path d="M31.781 66.406q-7.61 0-11.453-7.5Q16.5 51.422 16.5 36.375q0-14.984 3.828-22.484 3.844-7.5 11.453-7.5 7.672 0 11.5 7.5 3.844 7.5 3.844 22.484 0 15.047-3.844 22.531-3.828 7.5-11.5 7.5zm0 7.813q12.266 0 18.735-9.703 6.468-9.688 6.468-28.141 0-18.406-6.468-28.11-6.47-9.687-18.735-9.687-12.25 0-18.718 9.688-6.47 9.703-6.47 28.109 0 18.453 6.47 28.14Q19.53 74.22 31.78 74.22z" id="DejaVuSans-48"/></defs><g transform="matrix(.1 0 0 -.1 85.861 291.71)"><use xlink:href="#DejaVuSans-8722"/><use x="83.789" xlink:href="#DejaVuSans-49"/><use x="147.412" xlink:href="#DejaVuSans-46"/><use x="179.199" xlink:href="#DejaVuSans-48"/></g></g></g><g id="xtick_3"><use x="157.523" xlink:href="#m937c7a0ba6" y="277.111" stroke="#000" stroke-width=".8" id="line2d_3"/><g transform="matrix(.1 0 0 -.1 145.381 291.71)" id="text_3"><use xlink:href="#DejaVuSans-8722"/><use x="83.789" xlink:href="#DejaVuSans-48"/><use x="147.412" xlink:href="#DejaVuSans-46"/><use x="179.199" xlink:href="#DejaVuSans-53"/></g></g><g id="xtick_4"><use x="217.043" xlink:href="#m937c7a0ba6" y="277.111" stroke="#000" stroke-width=".8" id="line2d_4"/><g transform="matrix(.1 0 0 -.1 209.091 291.71)" id="text_4"><use xlink:href="#DejaVuSans-48"/><use x="63.623" xlink:href="#DejaVuSans-46"/><use x="95.41" xlink:href="#DejaVuSans-48"/></g></g><g id="xtick_5"><use x="276.563" xlink:href="#m937c7a0ba6" y="277.111" stroke="#000" stroke-width=".8" id="line2d_5"/><g transform="matrix(.1 0 0 -.1 268.611 291.71)" id="text_5"><use xlink:href="#DejaVuSans-48"/><use x="63.623" xlink:href="#DejaVuSans-46"/><use x="95.41" xlink:href="#DejaVuSans-53"/></g></g><g id="xtick_6"><use x="336.083" xlink:href="#m937c7a0ba6" y="277.111" stroke="#000" stroke-width=".8" id="line2d_6"/><g transform="matrix(.1 0 0 -.1 328.131 291.71)" id="text_6"><use xlink:href="#DejaVuSans-49"/><use x="63.623" xlink:href="#DejaVuSans-46"/><use x="95.41" xlink:href="#DejaVuSans-48"/></g></g><g id="xtick_7"><use x="395.603" xlink:href="#m937c7a0ba6" y="277.111" stroke="#000" stroke-width=".8" id="line2d_7"/><g transform="matrix(.1 0 0 -.1 387.651 291.71)" id="text_7"><use xlink:href="#DejaVuSans-49"/><use x="63.623" xlink:href="#DejaVuSans-46"/><use x="95.41" xlink:href="#DejaVuSans-53"/></g></g></g><g id="matplotlib.axis_2"><g id="ytick_1"><g id="line2d_8"><defs><path d="M0 0h-3.5" id="m0b9b73ae58" stroke="#000" stroke-width=".8"/></defs><use x="38.483" xlink:href="#m0b9b73ae58" y="277.111" stroke="#000" stroke-width=".8"/></g><g id="text_8"><defs><path d="M19.188 8.297h34.421V0H7.33v8.297q5.609 5.812 15.296 15.594 9.703 9.797 12.188 12.64 4.734 5.313 6.609 9 1.89 3.688 1.89 7.25 0 5.813-4.078 9.469-4.078 3.672-10.625 3.672-4.64 0-9.797-1.61-5.14-1.609-11-4.89v9.969Q13.767 71.78 18.938 73q5.188 1.219 9.485 1.219 11.328 0 18.062-5.672 6.735-5.656 6.735-15.125 0-4.5-1.688-8.531-1.672-4.016-6.125-9.485-1.218-1.422-7.765-8.187-6.532-6.766-18.453-18.922z" id="DejaVuSans-50"/></defs><g transform="matrix(.1 0 0 -.1 7.2 280.91)"><use xlink:href="#DejaVuSans-8722"/><use x="83.789" xlink:href="#DejaVuSans-48"/><use x="147.412" xlink:href="#DejaVuSans-46"/><use x="179.199" xlink:href="#DejaVuSans-50"/></g></g></g><g id="ytick_2"><use x="38.483" xlink:href="#m0b9b73ae58" y="239.095" stroke="#000" stroke-width=".8" id="line2d_9"/><g transform="matrix(.1 0 0 -.1 15.58 242.894)" id="text_9"><use xlink:href="#DejaVuSans-48"/><use x="63.623" xlink:href="#DejaVuSans-46"/><use x="95.41" xlink:href="#DejaVuSans-48"/></g></g><g id="ytick_3"><use x="38.483" xlink:href="#m0b9b73ae58" y="201.079" stroke="#000" stroke-width=".8" id="line2d_10"/><g transform="matrix(.1 0 0 -.1 15.58 204.878)" id="text_10"><use xlink:href="#DejaVuSans-48"/><use x="63.623" xlink:href="#DejaVuSans-46"/><use x="95.41" xlink:href="#DejaVuSans-50"/></g></g><g id="ytick_4"><use x="38.483" xlink:href="#m0b9b73ae58" y="163.063" stroke="#000" stroke-width=".8" id="line2d_11"/><g id="text_11"><defs><path d="M37.797 64.313L12.89 25.39h24.906zm-2.594 8.593H47.61V25.391h10.407v-8.203H47.609V0h-9.812v17.188H4.89v9.515z" id="DejaVuSans-52"/></defs><g transform="matrix(.1 0 0 -.1 15.58 166.862)"><use xlink:href="#DejaVuSans-48"/><use x="63.623" xlink:href="#DejaVuSans-46"/><use x="95.41" xlink:href="#DejaVuSans-52"/></g></g></g><g id="ytick_5"><use x="38.483" xlink:href="#m0b9b73ae58" y="125.047" stroke="#000" stroke-width=".8" id="line2d_12"/><g id="text_12"><defs><path d="M33.016 40.375q-6.641 0-10.532-4.547-3.875-4.531-3.875-12.437 0-7.86 3.875-12.438 3.891-4.562 10.532-4.562 6.64 0 10.515 4.562 3.875 4.578 3.875 12.438 0 7.906-3.875 12.437-3.875 4.547-10.515 4.547zm19.578 30.922v-8.984q-3.719 1.75-7.5 2.671-3.782.938-7.5.938-9.766 0-14.922-6.594-5.14-6.594-5.875-19.922 2.875 4.25 7.219 6.516 4.359 2.266 9.578 2.266 10.984 0 17.36-6.672 6.374-6.657 6.374-18.125 0-11.235-6.64-18.032-6.641-6.78-17.672-6.78-12.657 0-19.344 9.687-6.688 9.703-6.688 28.109 0 17.281 8.204 27.563 8.203 10.28 22.015 10.28 3.719 0 7.5-.734t7.89-2.187z" id="DejaVuSans-54"/></defs><g transform="matrix(.1 0 0 -.1 15.58 128.846)"><use xlink:href="#DejaVuSans-48"/><use x="63.623" xlink:href="#DejaVuSans-46"/><use x="95.41" xlink:href="#DejaVuSans-54"/></g></g></g><g id="ytick_6"><use x="38.483" xlink:href="#m0b9b73ae58" y="87.031" stroke="#000" stroke-width=".8" id="line2d_13"/><g id="text_13"><defs><path d="M31.781 34.625q-7.031 0-11.062-3.766-4.016-3.765-4.016-10.343 0-6.594 4.016-10.36Q24.75 6.391 31.78 6.391q7.032 0 11.078 3.78 4.063 3.798 4.063 10.345 0 6.578-4.031 10.343-4.016 3.766-11.11 3.766zm-9.86 4.188q-6.343 1.562-9.89 5.906Q8.5 49.079 8.5 55.329q0 8.733 6.219 13.812 6.234 5.078 17.062 5.078 10.89 0 17.094-5.078 6.203-5.079 6.203-13.813 0-6.25-3.547-10.61-3.531-4.343-9.828-5.906 7.125-1.656 11.094-6.5 3.984-4.828 3.984-11.796 0-10.61-6.468-16.282-6.47-5.656-18.532-5.656-12.047 0-18.531 5.656-6.469 5.672-6.469 16.282 0 6.968 4 11.797 4.016 4.843 11.14 6.5zM18.314 54.39q0-5.657 3.53-8.828 3.548-3.172 9.938-3.172 6.36 0 9.938 3.172 3.593 3.171 3.593 8.828 0 5.672-3.593 8.843-3.578 3.172-9.938 3.172-6.39 0-9.937-3.172-3.532-3.172-3.532-8.843z" id="DejaVuSans-56"/></defs><g transform="matrix(.1 0 0 -.1 15.58 90.83)"><use xlink:href="#DejaVuSans-48"/><use x="63.623" xlink:href="#DejaVuSans-46"/><use x="95.41" xlink:href="#DejaVuSans-56"/></g></g></g><g id="ytick_7"><use x="38.483" xlink:href="#m0b9b73ae58" y="49.015" stroke="#000" stroke-width=".8" id="line2d_14"/><g transform="matrix(.1 0 0 -.1 15.58 52.814)" id="text_14"><use xlink:href="#DejaVuSans-49"/><use x="63.623" xlink:href="#DejaVuSans-46"/><use x="95.41" xlink:href="#DejaVuSans-48"/></g></g><g id="ytick_8"><use x="38.483" xlink:href="#m0b9b73ae58" y="10.999" stroke="#000" stroke-width=".8" id="line2d_15"/><g transform="matrix(.1 0 0 -.1 15.58 14.798)" id="text_15"><use xlink:href="#DejaVuSans-49"/><use x="63.623" xlink:href="#DejaVuSans-46"/><use x="95.41" xlink:href="#DejaVuSans-50"/></g></g></g><g id="line2d_16"><defs><path d="M-3 3l6-6m-6 0l6 6" id="mff3a009e0c" stroke="#000"/></defs><g clip-path="url(#p5d9ea5422a)" stroke="#000"><use x="98.003" xlink:href="#mff3a009e0c" y="231.784"/><use x="109.907" xlink:href="#mff3a009e0c" y="230.15"/><use x="121.811" xlink:href="#mff3a009e0c" y="227.914"/><use x="133.715" xlink:href="#mff3a009e0c" y="224.75"/><use x="145.619" xlink:href="#mff3a009e0c" y="220.087"/><use x="157.523" xlink:href="#mff3a009e0c" y="212.877"/><use x="169.427" xlink:href="#mff3a009e0c" y="201.079"/><use x="181.331" xlink:href="#mff3a009e0c" y="180.609"/><use x="193.235" xlink:href="#mff3a009e0c" y="144.055"/><use x="205.139" xlink:href="#mff3a009e0c" y="87.031"/><use x="217.043" xlink:href="#mff3a009e0c" y="49.015"/><use x="228.947" xlink:href="#mff3a009e0c" y="87.031"/><use x="240.851" xlink:href="#mff3a009e0c" y="144.055"/><use x="252.755" xlink:href="#mff3a009e0c" y="180.609"/><use x="264.659" xlink:href="#mff3a009e0c" y="201.079"/><use x="276.563" xlink:href="#mff3a009e0c" y="212.877"/><use x="288.467" xlink:href="#mff3a009e0c" y="220.087"/><use x="300.371" xlink:href="#mff3a009e0c" y="224.75"/><use x="312.275" xlink:href="#mff3a009e0c" y="227.914"/><use x="324.179" xlink:href="#mff3a009e0c" y="230.15"/><use x="336.083" xlink:href="#mff3a009e0c" y="231.784"/></g></g><path clip-path="url(#p5d9ea5422a)" d="M38.483 235.775l17.856-.762 14.285-.814 12.499-.927 10.713-1.019 8.928-1.065 7.143-1.038 7.142-1.252 5.357-1.117 5.357-1.305 5.357-1.539 5.356-1.828 3.572-1.416 3.57-1.606 3.572-1.828 3.571-2.093 3.571-2.406 3.572-2.783 3.57-3.235 3.572-3.782 1.786-2.13 1.785-2.314 1.786-2.515 1.785-2.736 1.786-2.981 1.786-3.251 1.785-3.549 1.786-3.875 1.785-4.234 1.786-4.624 1.786-5.05 1.785-5.507 1.786-5.996 1.785-6.51 1.786-7.038 1.786-7.571 3.57-16.635 5.358-27.358 3.57-17.636 1.786-7.74 1.786-6.536 1.786-4.976 1.785-3.12 1.786-1.063 1.785 1.063 1.786 3.12 1.786 4.976 1.785 6.536 1.786 7.74 3.571 17.636 5.357 27.358 3.571 16.635 1.786 7.57 1.785 7.04 1.786 6.509 1.785 5.996 1.786 5.507 1.786 5.05 1.785 4.624 1.786 4.234 1.785 3.875 1.786 3.549 1.786 3.25 1.785 2.982 1.786 2.736 1.785 2.515 1.786 2.313 3.571 4.097 3.571 3.495 3.572 2.999 3.57 2.586 3.572 2.243 3.571 1.954 3.571 1.713 3.572 1.506 5.356 1.941 5.357 1.628 5.357 1.378 5.357 1.175 7.142 1.315 7.143 1.087 8.928 1.112 10.713 1.06 10.714.84 14.285.872 16.07.74 5.357.205" fill="none" stroke="#ccc" stroke-linecap="square" stroke-width="1.5" id="line2d_17"/><path clip-path="url(#p5d9ea5422a)" d="M38.483 239.392l69.638-8.97 7.143-1.183 7.142-1.457 5.357-1.306 5.357-1.538 5.356-1.827 3.572-1.416 3.57-1.607 3.572-1.827 3.571-2.093 3.571-2.407 3.572-2.774 3.57-3.227 3.572-3.788 1.786-2.137 1.785-2.32 1.786-2.518 1.785-2.742 1.786-2.986 1.786-3.254 1.785-3.543 1.786-3.855 1.785-4.194 1.786-4.577 1.786-5.008 1.785-5.488 1.786-6.015 1.785-6.591 1.786-7.215 3.571-16.122 3.571-17.546 5.357-26.72 1.786-8.352 1.785-7.59 1.786-6.488 1.786-5.051 1.785-3.278 1.786-1.167 1.785 1.167 1.786 3.278 1.786 5.051 1.785 6.489 1.786 7.589 3.571 17.135 7.142 35.483 3.572 16.122 1.785 7.215 1.786 6.591 1.785 6.015 1.786 5.488 1.786 5.008 1.785 4.577 1.786 4.194 1.785 3.855 1.786 3.543 1.786 3.254 1.785 2.986 1.786 2.742 1.785 2.519 3.572 4.456 3.57 3.788 3.572 3.227 3.571 2.774 3.571 2.407 3.572 2.093 3.57 1.827 3.572 1.607 3.571 1.416 5.357 1.827 5.357 1.538 5.357 1.306 7.142 1.457 7.142 1.183 8.928 1.21 60.71 7.76" fill="none" stroke="#1f77b4" stroke-linecap="square" stroke-width="1.5" id="line2d_18"/><path d="M38.483 277.111V11" fill="none" stroke="#000" stroke-linecap="square" stroke-width=".8" id="patch_3"/><path d="M395.603 277.111V11" fill="none" stroke="#000" stroke-linecap="square" stroke-width=".8" id="patch_4"/><path d="M38.483 277.111h357.12" fill="none" stroke="#000" stroke-linecap="square" stroke-width=".8" id="patch_5"/><path d="M38.483 11h357.12" fill="none" stroke="#000" stroke-linecap="square" stroke-width=".8" id="patch_6"/><g id="legend_1"><path d="M265.251 48.355h123.352q2 0 2-2V18q0-2-2-2H265.25q-2 0-2 2v28.356q0 2 2 2z" fill="#fff" opacity=".8" stroke="#ccc" id="patch_7"/><path d="M267.251 24.098h20" fill="none" stroke="#ccc" stroke-linecap="square" stroke-width="1.5" id="line2d_19"/><g id="text_16"><defs><path d="M25.39 72.906h8.297L8.297-9.28H0z" id="DejaVuSans-47"/><path d="M31 75.875q-6.531-11.219-9.719-22.219-3.172-10.984-3.172-22.265 0-11.266 3.203-22.328Q24.517-2 31-13.188h-7.813Q15.875-1.704 12.235 9.375q-3.64 11.078-3.64 22.016 0 10.89 3.61 21.922 3.624 11.046 10.983 22.562z" id="DejaVuSans-40"/><path d="M46 62.703V35.5h27.188v-8.297H46V0h-8.203v27.203H10.594V35.5h27.203v27.203z" id="DejaVuSans-43"/><path d="M47.016 60.89L29.5 51.423l17.516-9.531-2.828-4.782-16.407 9.907V28.609H22.22v18.407L5.812 37.109l-2.828 4.782 17.532 9.53-17.532 9.47 2.829 4.828 16.406-9.906v18.406h5.562V55.813l16.407 9.906z" id="DejaVuSans-42"/><path d="M54.89 54.688l-19.78-26.61L55.905 0H45.313L29.39 21.484 13.484 0H2.875l21.25 28.61L4.687 54.687h10.594l14.5-19.485 14.5 19.484z" id="DejaVuSans-120"/><path d="M8.016 75.875h7.812q7.313-11.516 10.953-22.563 3.64-11.03 3.64-21.921 0-10.938-3.64-22.016-3.64-11.078-10.953-22.563H8.016Q14.5-2 17.703 9.063q3.203 11.063 3.203 22.329 0 11.28-3.203 22.265-3.203 11-9.687 22.219z" id="DejaVuSans-41"/></defs><g transform="matrix(.1 0 0 -.1 295.251 27.598)"><use xlink:href="#DejaVuSans-49"/><use x="63.623" xlink:href="#DejaVuSans-32"/><use x="95.41" xlink:href="#DejaVuSans-47"/><use x="129.102" xlink:href="#DejaVuSans-32"/><use x="160.889" xlink:href="#DejaVuSans-40"/><use x="199.902" xlink:href="#DejaVuSans-49"/><use x="263.525" xlink:href="#DejaVuSans-32"/><use x="295.313" xlink:href="#DejaVuSans-43"/><use x="379.102" xlink:href="#DejaVuSans-32"/><use x="410.889" xlink:href="#DejaVuSans-50"/><use x="474.512" xlink:href="#DejaVuSans-53"/><use x="538.135" xlink:href="#DejaVuSans-32"/><use x="569.922" xlink:href="#DejaVuSans-42"/><use x="619.922" xlink:href="#DejaVuSans-32"/><use x="651.709" xlink:href="#DejaVuSans-120"/><use x="710.889" xlink:href="#DejaVuSans-42"/><use x="760.889" xlink:href="#DejaVuSans-42"/><use x="810.889" xlink:href="#DejaVuSans-50"/><use x="874.512" xlink:href="#DejaVuSans-41"/></g></g><path d="M267.251 38.776h20" fill="none" stroke="#1f77b4" stroke-linecap="square" stroke-width="1.5" id="line2d_21"/><g id="text_17"><defs><path d="M44.281 53.078v-8.5q-3.797 1.953-7.906 2.922-4.094.984-8.5.984-6.688 0-10.031-2.047-3.344-2.046-3.344-6.156 0-3.125 2.39-4.906 2.391-1.781 9.626-3.39l3.078-.688q9.562-2.047 13.593-5.781 4.032-3.735 4.032-10.422 0-7.625-6.032-12.078-6.03-4.438-16.578-4.438-4.39 0-9.156.86Q10.688.296 5.422 2v9.281q4.984-2.594 9.812-3.89 4.829-1.282 9.579-1.282 6.343 0 9.75 2.172 3.421 2.172 3.421 6.125 0 3.656-2.468 5.61-2.453 1.953-10.813 3.765l-3.125.735q-8.344 1.75-12.062 5.39-3.704 3.64-3.704 9.985 0 7.718 5.47 11.906Q16.75 56 26.811 56q4.97 0 9.36-.734 4.406-.72 8.11-2.188z" id="DejaVuSans-115"/><path d="M52 44.188q3.375 6.062 8.063 8.937Q64.75 56 71.093 56q8.548 0 13.188-5.984 4.64-5.97 4.64-17V0h-9.03v32.719q0 7.86-2.797 11.656-2.781 3.813-8.485 3.813-6.984 0-11.046-4.641-4.047-4.625-4.047-12.64V0h-9.032v32.719q0 7.906-2.78 11.687-2.782 3.782-8.595 3.782-6.89 0-10.953-4.657-4.047-4.656-4.047-12.625V0H9.08v54.688h9.03v-8.5q3.078 5.03 7.375 7.421Q29.781 56 35.687 56q5.97 0 10.141-3.031Q50 49.953 52 44.187z" id="DejaVuSans-109"/><path d="M30.61 48.39q-7.22 0-11.422-5.64-4.204-5.64-4.204-15.453 0-9.813 4.172-15.453 4.188-5.64 11.453-5.64 7.188 0 11.375 5.655 4.203 5.672 4.203 15.438 0 9.719-4.203 15.406-4.187 5.688-11.375 5.688zm0 7.61q11.718 0 18.406-7.625 6.703-7.61 6.703-21.078 0-13.422-6.703-21.078-6.688-7.64-18.407-7.64-11.765 0-18.437 7.64-6.656 7.656-6.656 21.078 0 13.469 6.656 21.078Q18.844 56 30.609 56z" id="DejaVuSans-111"/><path d="M18.313 70.219V54.688h18.5v-6.985h-18.5V18.016q0-6.688 1.828-8.594 1.828-1.906 7.453-1.906h9.218V0h-9.218q-10.407 0-14.36 3.875-3.953 3.89-3.953 14.14v29.688H2.687v6.984h6.594V70.22z" id="DejaVuSans-116"/><path d="M54.89 33.016V0h-8.984v32.719q0 7.765-3.031 11.61-3.031 3.858-9.078 3.858-7.281 0-11.484-4.64-4.204-4.625-4.204-12.64V0H9.08v75.984h9.03V46.188q3.235 4.937 7.594 7.374Q30.078 56 35.797 56q9.422 0 14.25-5.828 4.844-5.828 4.844-17.156z" id="DejaVuSans-104"/><path d="M37.11 75.984V68.5h-8.594q-4.828 0-6.72-1.953-1.874-1.953-1.874-7.031v-4.828h14.797v-6.985H19.922V0H10.89v47.703H2.297v6.984h8.594V58.5q0 9.125 4.25 13.297 4.25 4.187 13.468 4.187z" id="DejaVuSans-102"/><path d="M9.422 54.688h8.984V0H9.422zm0 21.296h8.984v-11.39H9.422z" id="DejaVuSans-105"/></defs><g transform="matrix(.1 0 0 -.1 295.251 42.276)"><use xlink:href="#DejaVuSans-115"/><use x="52.1" xlink:href="#DejaVuSans-109"/><use x="149.512" xlink:href="#DejaVuSans-111"/><use x="210.693" xlink:href="#DejaVuSans-111"/><use x="271.875" xlink:href="#DejaVuSans-116"/><use x="311.084" xlink:href="#DejaVuSans-104"/><use x="374.463" xlink:href="#DejaVuSans-32"/><use x="406.25" xlink:href="#DejaVuSans-102"/><use x="441.455" xlink:href="#DejaVuSans-105"/><use x="469.238" xlink:href="#DejaVuSans-116"/></g></g></g></g></g><defs><clipPath id="p5d9ea5422a"><path d="M38.483 10.999h357.12v266.112H38.483z"/></clipPath></defs></svg>