<svg height="396.254" viewBox="0 0 408.737 297.19" width="544.983" xmlns="http://www.w3.org/2000/svg" xmlns:xlink="http://www.w3.org/1999/xlink"><defs><style>*{stroke-linecap:butt;stroke-linejoin:round}</style></defs><g id="figure_1"><path d="M0 297.19h408.737V0H0z" fill="none" id="patch_1"/><g id="axes_1"><path d="M36.466 273.312h357.12V7.2H36.466z" fill="none" id="patch_2"/><g id="matplotlib.axis_1"><g id="xtick_1"><path clip-path="url(#peeb3d15ed9)" d="M36.466 273.312V7.2" fill="none" stroke="#b0b0b0" stroke-linecap="square" stroke-width=".8" id="line2d_1"/><g id="line2d_2"><defs><path d="M0 0v3.5" id="m899f2b172d" stroke="#000" stroke-width=".8"/></defs><use x="36.466" xlink:href="#m899f2b172d" y="273.312" stroke="#000" stroke-width=".8"/></g><g id="text_1"><defs><path d="M31.781 66.406q-7.61 0-11.453-7.5Q16.5 51.422 16.5 36.375q0-14.984 3.828-22.484 3.844-7.5 11.453-7.5 7.672 0 11.5 7.5 3.844 7.5 3.844 22.484 0 15.047-3.844 22.531-3.828 7.5-11.5 7.5zm0 7.813q12.266 0 18.735-9.703 6.468-9.688 6.468-28.141 0-18.406-6.468-28.11-6.47-9.687-18.735-9.687-12.25 0-18.718 9.688-6.47 9.703-6.47 28.109 0 18.453 6.47 28.14Q19.53 74.22 31.78 74.22z" id="DejaVuSans-48"/><path d="M10.688 12.406H21V0H10.687z" id="DejaVuSans-46"/></defs><g transform="matrix(.1 0 0 -.1 28.514 287.91)"><use xlink:href="#DejaVuSans-48"/><use x="63.623" xlink:href="#DejaVuSans-46"/><use x="95.41" xlink:href="#DejaVuSans-48"/></g></g></g><g id="xtick_2"><path clip-path="url(#peeb3d15ed9)" d="M81.106 273.312V7.2" fill="none" stroke="#b0b0b0" stroke-linecap="square" stroke-width=".8" id="line2d_3"/><use x="81.106" xlink:href="#m899f2b172d" y="273.312" stroke="#000" stroke-width=".8" id="line2d_4"/><g id="text_2"><defs><path d="M10.797 72.906h38.719v-8.312H19.828v-17.86q2.14.735 4.281 1.094 2.157.36 4.313.36 12.203 0 19.328-6.688 7.14-6.688 7.14-18.11 0-11.765-7.328-18.296-7.328-6.516-20.656-6.516-4.593 0-9.36.781-4.75.782-9.827 2.344v9.922q4.39-2.39 9.078-3.563 4.687-1.171 9.906-1.171 8.453 0 13.375 4.437 4.938 4.438 4.938 12.063 0 7.609-4.938 12.047-4.922 4.453-13.375 4.453-3.953 0-7.89-.875-3.922-.875-8.016-2.735z" id="DejaVuSans-53"/></defs><g transform="matrix(.1 0 0 -.1 73.154 287.91)"><use xlink:href="#DejaVuSans-48"/><use x="63.623" xlink:href="#DejaVuSans-46"/><use x="95.41" xlink:href="#DejaVuSans-53"/></g></g></g><g id="xtick_3"><path clip-path="url(#peeb3d15ed9)" d="M125.746 273.312V7.2" fill="none" stroke="#b0b0b0" stroke-linecap="square" stroke-width=".8" id="line2d_5"/><use x="125.746" xlink:href="#m899f2b172d" y="273.312" stroke="#000" stroke-width=".8" id="line2d_6"/><g id="text_3"><defs><path d="M12.406 8.297h16.11v55.625l-17.532-3.516v8.985l17.438 3.515h9.86V8.296H54.39V0H12.406z" id="DejaVuSans-49"/></defs><g transform="matrix(.1 0 0 -.1 117.794 287.91)"><use xlink:href="#DejaVuSans-49"/><use x="63.623" xlink:href="#DejaVuSans-46"/><use x="95.41" xlink:href="#DejaVuSans-48"/></g></g></g><g id="xtick_4"><path clip-path="url(#peeb3d15ed9)" d="M170.386 273.312V7.2" fill="none" stroke="#b0b0b0" stroke-linecap="square" stroke-width=".8" id="line2d_7"/><use x="170.386" xlink:href="#m899f2b172d" y="273.312" stroke="#000" stroke-width=".8" id="line2d_8"/><g transform="matrix(.1 0 0 -.1 162.434 287.91)" id="text_4"><use xlink:href="#DejaVuSans-49"/><use x="63.623" xlink:href="#DejaVuSans-46"/><use x="95.41" xlink:href="#DejaVuSans-53"/></g></g><g id="xtick_5"><path clip-path="url(#peeb3d15ed9)" d="M215.026 273.312V7.2" fill="none" stroke="#b0b0b0" stroke-linecap="square" stroke-width=".8" id="line2d_9"/><use x="215.026" xlink:href="#m899f2b172d" y="273.312" stroke="#000" stroke-width=".8" id="line2d_10"/><g id="text_5"><defs><path d="M19.188 8.297h34.421V0H7.33v8.297q5.609 5.812 15.296 15.594 9.703 9.797 12.188 12.64 4.734 5.313 6.609 9 1.89 3.688 1.89 7.25 0 5.813-4.078 9.469-4.078 3.672-10.625 3.672-4.64 0-9.797-1.61-5.14-1.609-11-4.89v9.969Q13.767 71.78 18.938 73q5.188 1.219 9.485 1.219 11.328 0 18.062-5.672 6.735-5.656 6.735-15.125 0-4.5-1.688-8.531-1.672-4.016-6.125-9.485-1.218-1.422-7.765-8.187-6.532-6.766-18.453-18.922z" id="DejaVuSans-50"/></defs><g transform="matrix(.1 0 0 -.1 207.074 287.91)"><use xlink:href="#DejaVuSans-50"/><use x="63.623" xlink:href="#DejaVuSans-46"/><use x="95.41" xlink:href="#DejaVuSans-48"/></g></g></g><g id="xtick_6"><path clip-path="url(#peeb3d15ed9)" d="M259.666 273.312V7.2" fill="none" stroke="#b0b0b0" stroke-linecap="square" stroke-width=".8" id="line2d_11"/><use x="259.666" xlink:href="#m899f2b172d" y="273.312" stroke="#000" stroke-width=".8" id="line2d_12"/><g transform="matrix(.1 0 0 -.1 251.714 287.91)" id="text_6"><use xlink:href="#DejaVuSans-50"/><use x="63.623" xlink:href="#DejaVuSans-46"/><use x="95.41" xlink:href="#DejaVuSans-53"/></g></g><g id="xtick_7"><path clip-path="url(#peeb3d15ed9)" d="M304.306 273.312V7.2" fill="none" stroke="#b0b0b0" stroke-linecap="square" stroke-width=".8" id="line2d_13"/><use x="304.306" xlink:href="#m899f2b172d" y="273.312" stroke="#000" stroke-width=".8" id="line2d_14"/><g id="text_7"><defs><path d="M40.578 39.313Q47.656 37.797 51.625 33q3.984-4.781 3.984-11.813 0-10.78-7.422-16.703-7.421-5.906-21.093-5.906-4.578 0-9.438.906-4.86.907-10.031 2.72v9.515q4.094-2.39 8.969-3.61 4.89-1.218 10.218-1.218 9.266 0 14.125 3.656 4.86 3.656 4.86 10.64 0 6.454-4.516 10.079-4.515 3.64-12.562 3.64h-8.5v8.11h8.89q7.266 0 11.125 2.906 3.86 2.906 3.86 8.375 0 5.61-3.985 8.61-3.968 3.015-11.39 3.015-4.063 0-8.703-.89-4.641-.876-10.203-2.72v8.782q5.624 1.562 10.53 2.344 4.907.78 9.25.78 11.235 0 17.766-5.109 6.547-5.093 6.547-13.78 0-6.063-3.468-10.235-3.47-4.172-9.86-5.782z" id="DejaVuSans-51"/></defs><g transform="matrix(.1 0 0 -.1 296.354 287.91)"><use xlink:href="#DejaVuSans-51"/><use x="63.623" xlink:href="#DejaVuSans-46"/><use x="95.41" xlink:href="#DejaVuSans-48"/></g></g></g><g id="xtick_8"><path clip-path="url(#peeb3d15ed9)" d="M348.946 273.312V7.2" fill="none" stroke="#b0b0b0" stroke-linecap="square" stroke-width=".8" id="line2d_15"/><use x="348.946" xlink:href="#m899f2b172d" y="273.312" stroke="#000" stroke-width=".8" id="line2d_16"/><g transform="matrix(.1 0 0 -.1 340.994 287.91)" id="text_8"><use xlink:href="#DejaVuSans-51"/><use x="63.623" xlink:href="#DejaVuSans-46"/><use x="95.41" xlink:href="#DejaVuSans-53"/></g></g><g id="xtick_9"><path clip-path="url(#peeb3d15ed9)" d="M393.586 273.312V7.2" fill="none" stroke="#b0b0b0" stroke-linecap="square" stroke-width=".8" id="line2d_17"/><use x="393.586" xlink:href="#m899f2b172d" y="273.312" stroke="#000" stroke-width=".8" id="line2d_18"/><g id="text_9"><defs><path d="M37.797 64.313L12.89 25.39h24.906zm-2.594 8.593H47.61V25.391h10.407v-8.203H47.609V0h-9.812v17.188H4.89v9.515z" id="DejaVuSans-52"/></defs><g transform="matrix(.1 0 0 -.1 385.634 287.91)"><use xlink:href="#DejaVuSans-52"/><use x="63.623" xlink:href="#DejaVuSans-46"/><use x="95.41" xlink:href="#DejaVuSans-48"/></g></g></g></g><g id="matplotlib.axis_2"><g id="ytick_1"><path clip-path="url(#peeb3d15ed9)" d="M36.466 273.312h357.12" fill="none" stroke="#b0b0b0" stroke-linecap="square" stroke-width=".8" id="line2d_19"/><g id="line2d_20"><defs><path d="M0 0h-3.5" id="mdb2a077f72" stroke="#000" stroke-width=".8"/></defs><use x="36.466" xlink:href="#mdb2a077f72" y="273.312" stroke="#000" stroke-width=".8"/></g><g transform="matrix(.1 0 0 -.1 7.2 277.111)" id="text_10"><use xlink:href="#DejaVuSans-48"/><use x="63.623" xlink:href="#DejaVuSans-46"/><use x="95.41" xlink:href="#DejaVuSans-48"/><use x="159.033" xlink:href="#DejaVuSans-48"/></g></g><g id="ytick_2"><path clip-path="url(#peeb3d15ed9)" d="M36.466 236.757h357.12" fill="none" stroke="#b0b0b0" stroke-linecap="square" stroke-width=".8" id="line2d_21"/><use x="36.466" xlink:href="#mdb2a077f72" y="236.757" stroke="#000" stroke-width=".8" id="line2d_22"/><g transform="matrix(.1 0 0 -.1 7.2 240.556)" id="text_11"><use xlink:href="#DejaVuSans-48"/><use x="63.623" xlink:href="#DejaVuSans-46"/><use x="95.41" xlink:href="#DejaVuSans-48"/><use x="159.033" xlink:href="#DejaVuSans-53"/></g></g><g id="ytick_3"><path clip-path="url(#peeb3d15ed9)" d="M36.466 200.202h357.12" fill="none" stroke="#b0b0b0" stroke-linecap="square" stroke-width=".8" id="line2d_23"/><use x="36.466" xlink:href="#mdb2a077f72" y="200.202" stroke="#000" stroke-width=".8" id="line2d_24"/><g transform="matrix(.1 0 0 -.1 7.2 204.001)" id="text_12"><use xlink:href="#DejaVuSans-48"/><use x="63.623" xlink:href="#DejaVuSans-46"/><use x="95.41" xlink:href="#DejaVuSans-49"/><use x="159.033" xlink:href="#DejaVuSans-48"/></g></g><g id="ytick_4"><path clip-path="url(#peeb3d15ed9)" d="M36.466 163.647h357.12" fill="none" stroke="#b0b0b0" stroke-linecap="square" stroke-width=".8" id="line2d_25"/><use x="36.466" xlink:href="#mdb2a077f72" y="163.647" stroke="#000" stroke-width=".8" id="line2d_26"/><g transform="matrix(.1 0 0 -.1 7.2 167.447)" id="text_13"><use xlink:href="#DejaVuSans-48"/><use x="63.623" xlink:href="#DejaVuSans-46"/><use x="95.41" xlink:href="#DejaVuSans-49"/><use x="159.033" xlink:href="#DejaVuSans-53"/></g></g><g id="ytick_5"><path clip-path="url(#peeb3d15ed9)" d="M36.466 127.092h357.12" fill="none" stroke="#b0b0b0" stroke-linecap="square" stroke-width=".8" id="line2d_27"/><use x="36.466" xlink:href="#mdb2a077f72" y="127.092" stroke="#000" stroke-width=".8" id="line2d_28"/><g transform="matrix(.1 0 0 -.1 7.2 130.892)" id="text_14"><use xlink:href="#DejaVuSans-48"/><use x="63.623" xlink:href="#DejaVuSans-46"/><use x="95.41" xlink:href="#DejaVuSans-50"/><use x="159.033" xlink:href="#DejaVuSans-48"/></g></g><g id="ytick_6"><path clip-path="url(#peeb3d15ed9)" d="M36.466 90.538h357.12" fill="none" stroke="#b0b0b0" stroke-linecap="square" stroke-width=".8" id="line2d_29"/><use x="36.466" xlink:href="#mdb2a077f72" y="90.538" stroke="#000" stroke-width=".8" id="line2d_30"/><g transform="matrix(.1 0 0 -.1 7.2 94.337)" id="text_15"><use xlink:href="#DejaVuSans-48"/><use x="63.623" xlink:href="#DejaVuSans-46"/><use x="95.41" xlink:href="#DejaVuSans-50"/><use x="159.033" xlink:href="#DejaVuSans-53"/></g></g><g id="ytick_7"><path clip-path="url(#peeb3d15ed9)" d="M36.466 53.983h357.12" fill="none" stroke="#b0b0b0" stroke-linecap="square" stroke-width=".8" id="line2d_31"/><use x="36.466" xlink:href="#mdb2a077f72" y="53.983" stroke="#000" stroke-width=".8" id="line2d_32"/><g transform="matrix(.1 0 0 -.1 7.2 57.782)" id="text_16"><use xlink:href="#DejaVuSans-48"/><use x="63.623" xlink:href="#DejaVuSans-46"/><use x="95.41" xlink:href="#DejaVuSans-51"/><use x="159.033" xlink:href="#DejaVuSans-48"/></g></g><g id="ytick_8"><path clip-path="url(#peeb3d15ed9)" d="M36.466 17.428h357.12" fill="none" stroke="#b0b0b0" stroke-linecap="square" stroke-width=".8" id="line2d_33"/><use x="36.466" xlink:href="#mdb2a077f72" y="17.428" stroke="#000" stroke-width=".8" id="line2d_34"/><g transform="matrix(.1 0 0 -.1 7.2 21.227)" id="text_17"><use xlink:href="#DejaVuSans-48"/><use x="63.623" xlink:href="#DejaVuSans-46"/><use x="95.41" xlink:href="#DejaVuSans-51"/><use x="159.033" xlink:href="#DejaVuSans-53"/></g></g></g><path clip-path="url(#peeb3d15ed9)" d="M36.466 205.906l28.57-25.74 16.07-14.157 10.713-9.182 10.714-8.876 8.928-7.13 8.928-6.866 8.928-6.584 8.928-6.285 8.928-5.966 7.142-4.532 8.928-5.374 8.928-5.07 8.928-4.79 8.928-4.53 8.928-4.292 8.928-4.076 10.714-4.638 10.713-4.397 12.5-4.875 14.284-5.31 16.07-5.739 17.857-6.153 21.427-7.132 24.998-8.068 39.284-12.4 17.856-5.613" fill="none" stroke="#1f77b4" stroke-linecap="square" stroke-width="1.5" id="line2d_35"/><g id="line2d_36"><defs><path d="M-3 3l6-6m-6 0l6 6" id="mbc74dde565" stroke="#000"/></defs><g clip-path="url(#peeb3d15ed9)" stroke="#000"><use x="39.858" xlink:href="#mbc74dde565" y="236.757"/><use x="53.786" xlink:href="#mbc74dde565" y="180.463"/><use x="74.41" xlink:href="#mbc74dde565" y="204.589"/><use x="92.355" xlink:href="#mbc74dde565" y="118.173"/><use x="148.333" xlink:href="#mbc74dde565" y="73.795"/><use x="259.666" xlink:href="#mbc74dde565" y="78.475"/><use x="370.373" xlink:href="#mbc74dde565" y="30.807"/></g></g><path d="M36.466 273.312V7.2" fill="none" stroke="#000" stroke-linecap="square" stroke-width=".8" id="patch_3"/><path d="M393.586 273.312V7.2" fill="none" stroke="#000" stroke-linecap="square" stroke-width=".8" id="patch_4"/><path d="M36.466 273.312h357.12" fill="none" stroke="#000" stroke-linecap="square" stroke-width=".8" id="patch_5"/><path d="M36.466 7.2h357.12" fill="none" stroke="#000" stroke-linecap="square" stroke-width=".8" id="patch_6"/></g></g><defs><clipPath id="peeb3d15ed9"><path d="M36.466 7.2h357.12v266.112H36.466z"/></clipPath></defs></svg>